<svg xmlns="http://www.w3.org/2000/svg" version="1.1" xmlns:xlink="http://www.w3.org/1999/xlink" xmlns:svgjs="http://svgjs.dev/svgjs" viewBox="0 0 800 800" opacity="1"><defs><filter id="bbburst-blur-1" x="-100%" y="-100%" width="400%" height="400%"><feGaussianBlur in="SourceGraphic" stdDeviation="1"></feGaussianBlur></filter><filter id="bbburst-blur-2" x="-100%" y="-100%" width="400%" height="400%"><feGaussianBlur in="SourceGraphic" stdDeviation="2"></feGaussianBlur></filter><filter id="bbburst-blur-3" x="-100%" y="-100%" width="400%" height="400%"><feGaussianBlur in="SourceGraphic" stdDeviation="4"></feGaussianBlur></filter><filter id="bbburst-blur-4" x="-100%" y="-100%" width="400%" height="400%"><feGaussianBlur in="SourceGraphic" stdDeviation="12"></feGaussianBlur></filter><symbol id="bbburst-shape-1" viewBox="0 0 194 167"><path d="m97 0 96.129 166.5H.871L97 0Z"></path></symbol><symbol id="bbburst-shape-3" viewBox="0 0 131 127"><path d="m66 0 66 63.5L66 127 0 63.5 66 0Z"></path></symbol><symbol id="bbburst-shape-5" viewBox="0 0 145 145"><circle cx="72.5" cy="72.5" r="72.5"></circle></symbol><symbol id="bbburst-shape-10" viewBox="0 0 145 145"><circle cx="72.5" cy="72.5" r="61.5" fill="none" stroke-width="22"></circle></symbol><symbol id="bbburst-shape-11" viewBox="0 0 194 167"><path d="M10.398 161 97 11l86.603 150H10.397Z" stroke-width="11"></path></symbol><symbol id="bbburst-shape-13" viewBox="0 0 159 159"><path stroke-width="22" d="M11 11h137v137H11z"></path></symbol></defs><use xlink:href="#bbburst-shape-11" width="50.1203987313435" opacity="0.24740476596748595" transform="matrix(0.9959285195271311,0.09014645856880181,-0.09014645856880181,0.9959285195271311,67.48016721151248,-285.7665280926557)" fill="none" stroke="#2f42a3" filter="url(#bbburst-blur-3)"></use><use xlink:href="#bbburst-shape-5" width="21.005256380386967" opacity="0.7296496004750789" transform="matrix(0.9441845483760464,-0.3294169676988745,0.3294169676988745,0.9441845483760464,620.9605127782127,-106.45700859332402)" fill="#2f42a3"></use><use xlink:href="#bbburst-shape-1" width="43.319665537184044" opacity="0.3937616305076431" transform="matrix(0.7754058897733483,-0.6314631470678254,0.6314631470678254,0.7754058897733483,453.7715737748797,304.90175506345776)" fill="#2f42a3" filter="url(#bbburst-blur-2)"></use><use xlink:href="#bbburst-shape-5" width="40.2988816625375" opacity="0.4894864944747108" transform="matrix(0.8147098099137903,0.5798688865857831,-0.5798688865857831,0.8147098099137903,974.2740432233553,171.27568494368973)" fill="#2f42a3" filter="url(#bbburst-blur-1)"></use><use xlink:href="#bbburst-shape-13" width="79.20455491765752" opacity="0.11148413613906627" transform="matrix(0.7893675942658741,0.613920842717452,-0.613920842717452,0.7893675942658741,296.45466396922694,183.53136075888517)" fill="none" stroke="#2f42a3" filter="url(#bbburst-blur-3)"></use><use xlink:href="#bbburst-shape-13" width="23.85876366131415" opacity="0.8308070501175329" transform="matrix(0.8899376134823743,0.4560822777847173,-0.4560822777847173,0.8899376134823743,840.2872689925323,-254.99066744992393)" fill="none" stroke="#2f42a3"></use><use xlink:href="#bbburst-shape-1" width="76.77891970100724" opacity="0.35118943857473894" transform="matrix(0.9990275009884058,-0.044091408107032624,0.044091408107032624,0.9990275009884058,145.96899790967078,-146.23389372621577)" fill="#2f42a3" filter="url(#bbburst-blur-2)"></use><use xlink:href="#bbburst-shape-11" width="67.72225161725524" opacity="0.32194512420305954" transform="matrix(0.8536191524791603,0.5208976315177101,-0.5208976315177101,0.8536191524791603,631.6781542691449,221.9712196685303)" fill="none" stroke="#2f42a3" filter="url(#bbburst-blur-2)"></use><use xlink:href="#bbburst-shape-11" width="36.63594928269842" opacity="0.7055824891632967" transform="matrix(0.9624948436960954,-0.27129997393739086,0.27129997393739086,0.9624948436960954,542.7531462510235,-116.7989728290388)" fill="none" stroke="#2f42a3"></use><use xlink:href="#bbburst-shape-1" width="54.890102031787904" opacity="0.4178801651417682" transform="matrix(0.9981159150383393,0.0613565004476191,-0.0613565004476191,0.9981159150383393,330.832679590134,-52.41115001213234)" fill="#2f42a3" filter="url(#bbburst-blur-2)"></use><use xlink:href="#bbburst-shape-10" width="43.65395635238733" opacity="0.5974472776072359" transform="matrix(0.9956181016885874,0.09351254242086167,-0.09351254242086167,0.9956181016885874,580.4045336892314,-73.6430989282203)" fill="none" stroke="#2f42a3" filter="url(#bbburst-blur-1)"></use><use xlink:href="#bbburst-shape-3" width="21.1126003974625" opacity="0.8073939861932886" transform="matrix(0.970814861610955,0.23983015756009968,-0.23983015756009968,0.970814861610955,695.0501892332286,-362.846525893461)" fill="#2f42a3"></use><use xlink:href="#bbburst-shape-5" width="54.31526655150399" opacity="0.30720169916016915" transform="matrix(0.8337902378397885,0.5520813701648237,-0.5520813701648237,0.8337902378397885,790.685201870968,312.4836702163254)" fill="#2f42a3" filter="url(#bbburst-blur-2)"></use><use xlink:href="#bbburst-shape-11" width="12.939357001780404" opacity="0.9452199705741624" transform="matrix(0.8176827235465374,-0.5756691442256714,0.5756691442256714,0.8176827235465374,527.951023674499,-282.5431086735938)" fill="none" stroke="#2f42a3"></use><use xlink:href="#bbburst-shape-1" width="28.085061576775722" opacity="0.6641721397697572" transform="matrix(0.9458679865465308,0.32455161689076806,-0.32455161689076806,0.9458679865465308,858.6527849992935,-52.06694532053825)" fill="#2f42a3"></use><use xlink:href="#bbburst-shape-1" width="48.517539980063184" opacity="0.41540673737858114" transform="matrix(0.9521047543401516,0.3057720339777323,-0.3057720339777323,0.9521047543401516,691.4007637463802,158.21715925160515)" fill="#2f42a3" filter="url(#bbburst-blur-2)"></use><use xlink:href="#bbburst-shape-13" width="25.287482471722917" opacity="0.8576911329025838" transform="matrix(0.8610239519882685,-0.5085644050683295,0.5085644050683295,0.8610239519882685,447.2035857127928,-305.20792725445875)" fill="none" stroke="#2f42a3"></use><use xlink:href="#bbburst-shape-13" width="34.12350171312367" opacity="0.22929477730509962" transform="matrix(0.874238633017987,0.485496459862316,-0.485496459862316,0.874238633017987,827.0271255989768,397.53737830464246)" fill="none" stroke="#2f42a3" filter="url(#bbburst-blur-3)"></use><use xlink:href="#bbburst-shape-3" width="65.9604500549811" opacity="0.006012687131886407" transform="matrix(0.7890596448770193,0.6143165933185853,-0.6143165933185853,0.7890596448770193,320.4606578835385,370.6070257814113)" fill="#2f42a3" filter="url(#bbburst-blur-3)"></use><use xlink:href="#bbburst-shape-1" width="12.519186759642757" opacity="0.9386949633741224" transform="matrix(0.8343460573565756,0.551241014959462,-0.551241014959462,0.8343460573565756,1000.8155952770819,-277.5975922341642)" fill="#2f42a3"></use><use xlink:href="#bbburst-shape-1" width="42.45941866764949" opacity="0.5991066151512292" transform="matrix(0.8051491294660137,0.5930724064733752,-0.5930724064733752,0.8051491294660137,873.525561729035,38.52959649724221)" fill="#2f42a3" filter="url(#bbburst-blur-1)"></use><use xlink:href="#bbburst-shape-3" width="52.83032271514312" opacity="0.4576160332584239" transform="matrix(0.8487878137976667,0.5287336258916937,-0.5287336258916937,0.8487878137976667,455.8973953418565,-253.1539993215946)" fill="#2f42a3" filter="url(#bbburst-blur-1)"></use><use xlink:href="#bbburst-shape-11" width="11.069217687019744" opacity="0.9684252344640358" transform="matrix(0.9824008755672412,-0.1867846880360323,0.1867846880360323,0.9824008755672412,690.5999063835442,-380.1076421034941)" fill="none" stroke="#2f42a3"></use><use xlink:href="#bbburst-shape-1" width="31.193837492013138" opacity="0.7655352563928818" transform="matrix(0.8914343895687825,0.45314978659835214,-0.45314978659835214,0.8914343895687825,808.4063107045647,-191.22698243453397)" fill="#2f42a3"></use><use xlink:href="#bbburst-shape-1" width="29.852547237493514" opacity="0.5875344771057058" transform="matrix(0.9982973898373411,-0.058329421769394166,0.058329421769394166,0.9982973898373411,717.2636544409559,11.647432770174817)" fill="#2f42a3" filter="url(#bbburst-blur-1)"></use><use xlink:href="#bbburst-shape-1" width="68.24474209563314" opacity="0.2731019327697263" transform="matrix(0.8437001612656427,-0.5368147146644999,0.5368147146644999,0.8437001612656427,-27.197460348364586,114.08631120818791)" fill="#2f42a3" filter="url(#bbburst-blur-2)"></use><use xlink:href="#bbburst-shape-11" width="42.94854846926531" opacity="0.3578572750228012" transform="matrix(0.9993579426840666,-0.03582879281066861,0.03582879281066861,0.9993579426840666,126.30300626615008,-325.7041124789981)" fill="none" stroke="#2f42a3" filter="url(#bbburst-blur-2)"></use><use xlink:href="#bbburst-shape-3" width="37.5326937651449" opacity="0.5821498554726552" transform="matrix(0.8832840722863754,0.46883818919238773,-0.46883818919238773,0.8832840722863754,577.6215132080416,-220.8155087152973)" fill="#2f42a3" filter="url(#bbburst-blur-1)"></use><use xlink:href="#bbburst-shape-5" width="74.24595719498097" opacity="0.11628125426306657" transform="matrix(0.8264437375278537,0.5630193146784505,-0.5630193146784505,0.8264437375278537,488.5445186311214,373.0488930620742)" fill="#2f42a3" filter="url(#bbburst-blur-3)"></use><use xlink:href="#bbburst-shape-11" width="42.89262833817534" opacity="0.6761567652757154" transform="matrix(0.9970909754431284,0.07622064477469735,-0.07622064477469735,0.9970909754431284,583.4169074586155,-168.81407014411653)" fill="none" stroke="#2f42a3"></use><use xlink:href="#bbburst-shape-10" width="42.9574944861827" opacity="0.28095302161311375" transform="matrix(0.9960461570105262,-0.08883722814542352,0.08883722814542352,0.9960461570105262,695.671069165293,320.9726097487295)" fill="none" stroke="#2f42a3" filter="url(#bbburst-blur-2)"></use><use xlink:href="#bbburst-shape-3" width="55.2038897522062" opacity="0.49062330247998276" transform="matrix(0.9690452400095497,0.2468832169565889,-0.2468832169565889,0.9690452400095497,412.61907127514144,-173.99411969612552)" fill="#2f42a3" filter="url(#bbburst-blur-1)"></use><use xlink:href="#bbburst-shape-11" width="50.79572033293146" opacity="0.49406631737845796" transform="matrix(0.8484296668150454,-0.5293081337634167,0.5293081337634167,0.8484296668150454,309.2251356585989,109.2215240501028)" fill="none" stroke="#2f42a3" filter="url(#bbburst-blur-1)"></use><use xlink:href="#bbburst-shape-1" width="28.923097064314764" opacity="0.7358730061427944" transform="matrix(0.9907149107390136,0.13595574882802197,-0.13595574882802197,0.9907149107390136,580.2824741890763,-350.4247904560418)" fill="#2f42a3"></use><use xlink:href="#bbburst-shape-1" width="23.615449566439917" opacity="0.8480929043702413" transform="matrix(0.9445769805612836,-0.32829000562570976,0.32829000562570976,0.9445769805612836,629.8061061961218,-224.57188974643654)" fill="#2f42a3"></use><use xlink:href="#bbburst-shape-5" width="12.864148369907987" opacity="0.9017349891841927" transform="matrix(0.9440345756025795,0.32984650986005226,-0.32984650986005226,0.9440345756025795,829.0794276410031,-362.75678577355836)" fill="#2f42a3"></use><use xlink:href="#bbburst-shape-13" width="69.48041712548489" opacity="0.2036789486168059" transform="matrix(0.7363701094518857,-0.6765789398923217,0.6765789398923217,0.7363701094518857,-225.29906902548896,49.207990300234826)" fill="none" stroke="#2f42a3" filter="url(#bbburst-blur-3)"></use><use xlink:href="#bbburst-shape-13" width="51.63068069696065" opacity="0.561076049987671" transform="matrix(0.8615076478606816,-0.5077445939422258,0.5077445939422258,0.8615076478606816,237.49909880538488,-50.46987636531361)" fill="none" stroke="#2f42a3" filter="url(#bbburst-blur-1)"></use><use xlink:href="#bbburst-shape-3" width="10.292345615283688" opacity="0.9413460368156603" transform="matrix(0.934940897840802,0.3548034914493302,-0.3548034914493302,0.934940897840802,879.8363773944558,-363.00126509183536)" fill="#2f42a3"></use><use xlink:href="#bbburst-shape-5" width="32.13013768805688" opacity="0.7245369853881822" transform="matrix(0.8409462531394198,-0.5411186555005943,0.5411186555005943,0.8409462531394198,337.433187585817,-180.12964936521334)" fill="#2f42a3"></use><use xlink:href="#bbburst-shape-11" width="45.988434989479764" opacity="0.6540555682685871" transform="matrix(0.9238703922322605,-0.382705498205355,0.382705498205355,0.9238703922322605,282.6284165583079,-314.8979648688365)" fill="none" stroke="#2f42a3"></use><use xlink:href="#bbburst-shape-1" width="53.395844064919785" opacity="0.23015516557774418" transform="matrix(0.9315944248554795,0.36349941895165166,-0.36349941895165166,0.9315944248554795,405.70402275458144,190.12270985095773)" fill="#2f42a3" filter="url(#bbburst-blur-3)"></use><use xlink:href="#bbburst-shape-11" width="27.66924156227492" opacity="0.797998843304611" transform="matrix(0.8601454769390939,0.5100487805114513,-0.5100487805114513,0.8601454769390939,897.7730832155374,-172.9027965756274)" fill="none" stroke="#2f42a3"></use><use xlink:href="#bbburst-shape-11" width="30.312347364174805" opacity="0.5482459719302974" transform="matrix(0.9264513427697539,-0.37641454472445657,0.37641454472445657,0.9264513427697539,185.76012603794427,-320.02204552529605)" fill="none" stroke="#2f42a3" filter="url(#bbburst-blur-1)"></use><use xlink:href="#bbburst-shape-5" width="11.015686654874289" opacity="0.9192232830140739" transform="matrix(0.952857072452059,-0.30341951070768597,0.30341951070768597,0.952857072452059,603.2687748111284,-339.36263945446535)" fill="#2f42a3"></use><use xlink:href="#bbburst-shape-13" width="28.741245046070375" opacity="0.6582608776846888" transform="matrix(0.7502185128904736,-0.6611899749061583,0.6611899749061583,0.7502185128904736,219.54918332188373,-136.82477998190825)" fill="none" stroke="#2f42a3"></use><use xlink:href="#bbburst-shape-3" width="14.760175160470622" opacity="0.9072862135007874" transform="matrix(0.7343111992498977,0.6788129806185037,-0.6788129806185037,0.7343111992498977,1009.7505150961538,-225.12067741759893)" fill="#2f42a3"></use><use xlink:href="#bbburst-shape-3" width="65.92355498513967" opacity="0.19636119006272534" transform="matrix(0.8810977512796243,0.47293419488337823,-0.47293419488337823,0.8810977512796243,629.3672493611641,364.3674685870994)" fill="#2f42a3" filter="url(#bbburst-blur-3)"></use><use xlink:href="#bbburst-shape-11" width="66.08470617559205" opacity="0.41631355608784093" transform="matrix(0.9715285045663282,0.2369226979736513,-0.2369226979736513,0.9715285045663282,479.71757491103085,43.056086850525446)" fill="none" stroke="#2f42a3" filter="url(#bbburst-blur-2)"></use><use xlink:href="#bbburst-shape-5" width="27.611801131101775" opacity="0.7893135589840385" transform="matrix(0.9708113690108617,-0.23984429490662562,0.23984429490662562,0.9708113690108617,652.5872871830423,-177.79529458222484)" fill="#2f42a3"></use><use xlink:href="#bbburst-shape-3" width="24.311734537684824" opacity="0.8614241753892206" transform="matrix(0.9909476891718041,0.13424856544880318,-0.13424856544880318,0.9909476891718041,767.1639176562762,-281.11220311266953)" fill="#2f42a3"></use><use xlink:href="#bbburst-shape-10" width="33.92179355368647" opacity="0.5085241940760142" transform="matrix(0.9951719200554745,-0.09814708112369067,0.09814708112369067,0.9951719200554745,612.1233239993905,77.08650822443803)" fill="none" stroke="#2f42a3" filter="url(#bbburst-blur-1)"></use><use xlink:href="#bbburst-shape-5" width="9.118463920223737" opacity="0.977374990522202" transform="matrix(0.9984287904472051,0.05603526038246714,-0.05603526038246714,0.9984287904472051,808.4476458814327,-379.0537026304533)" fill="#2f42a3"></use><use xlink:href="#bbburst-shape-11" width="30.097786464042212" opacity="0.786334481377966" transform="matrix(0.877886579128362,0.478868618919952,-0.478868618919952,0.877886579128362,785.7737778183864,-266.50018154111757)" fill="none" stroke="#2f42a3"></use><use xlink:href="#bbburst-shape-13" width="16.30684759215538" opacity="0.8980866165693919" transform="matrix(0.9191719114122965,-0.3938565694141275,0.3938565694141275,0.9191719114122965,613.3456476696509,-264.86317568556365)" fill="none" stroke="#2f42a3"></use><use xlink:href="#bbburst-shape-5" width="15.136749829458013" opacity="0.878284306246881" transform="matrix(0.903464825509301,0.42866223191161634,-0.42866223191161634,0.903464825509301,862.2268668524283,-298.83583813897434)" fill="#2f42a3"></use></svg>