<svg xmlns="http://www.w3.org/2000/svg" version="1.1" xmlns:xlink="http://www.w3.org/1999/xlink" xmlns:svgjs="http://svgjs.dev/svgjs" viewBox="0 0 800 800" opacity="1"><defs><filter id="bbburst-blur-1" x="-100%" y="-100%" width="400%" height="400%"><feGaussianBlur in="SourceGraphic" stdDeviation="1"></feGaussianBlur></filter><filter id="bbburst-blur-2" x="-100%" y="-100%" width="400%" height="400%"><feGaussianBlur in="SourceGraphic" stdDeviation="2"></feGaussianBlur></filter><filter id="bbburst-blur-3" x="-100%" y="-100%" width="400%" height="400%"><feGaussianBlur in="SourceGraphic" stdDeviation="4"></feGaussianBlur></filter><filter id="bbburst-blur-4" x="-100%" y="-100%" width="400%" height="400%"><feGaussianBlur in="SourceGraphic" stdDeviation="12"></feGaussianBlur></filter><symbol id="bbburst-shape-1" viewBox="0 0 194 167"><path d="m97 0 96.129 166.5H.871L97 0Z"></path></symbol><symbol id="bbburst-shape-3" viewBox="0 0 131 127"><path d="m66 0 66 63.5L66 127 0 63.5 66 0Z"></path></symbol><symbol id="bbburst-shape-5" viewBox="0 0 145 145"><circle cx="72.5" cy="72.5" r="72.5"></circle></symbol><symbol id="bbburst-shape-10" viewBox="0 0 145 145"><circle cx="72.5" cy="72.5" r="61.5" fill="none" stroke-width="22"></circle></symbol><symbol id="bbburst-shape-11" viewBox="0 0 194 167"><path d="M10.398 161 97 11l86.603 150H10.397Z" stroke-width="11"></path></symbol><symbol id="bbburst-shape-13" viewBox="0 0 159 159"><path stroke-width="22" d="M11 11h137v137H11z"></path></symbol></defs><use xlink:href="#bbburst-shape-1" width="31.00452607073363" opacity="0.4179619785415559" transform="matrix(0.9667195945348694,0.25583828005663584,-0.25583828005663584,0.9667195945348694,354.7702118872339,235.27440411342735)" fill="#2f42a3" filter="url(#bbburst-blur-2)"></use><use xlink:href="#bbburst-shape-1" width="41.00739636454572" opacity="0.32813699452501854" transform="matrix(1.233915977914208,-0.19987836163032735,0.19987836163032735,1.233915977914208,404.4704859820132,-371.1332246532292)" fill="#2f42a3" filter="url(#bbburst-blur-3)"></use><use xlink:href="#bbburst-shape-1" width="36.327233991235474" opacity="0.09912762011845899" transform="matrix(1.7470774994151101,0.10109505941165428,-0.10109505941165428,1.7470774994151101,762.2872797655093,-498.876198912929)" fill="#2f42a3" filter="url(#bbburst-blur-4)"></use><use xlink:href="#bbburst-shape-13" width="40.6369283989416" opacity="0.03346637633097982" transform="matrix(1.4141343407710152,1.030885088771841,-1.030885088771841,1.4141343407710152,1031.0975091769378,171.07089949918895)" fill="none" stroke="#2f42a3" filter="url(#bbburst-blur-4)"></use><use xlink:href="#bbburst-shape-1" width="36.850499310102585" opacity="0.10987861997572268" transform="matrix(1.478335898666041,0.9364950457505199,-0.9364950457505199,1.478335898666041,932.4437751212654,-563.7252863129786)" fill="#2f42a3" filter="url(#bbburst-blur-4)"></use><use xlink:href="#bbburst-shape-13" width="36.64594652857234" opacity="0.5371190535583517" transform="matrix(0.9698667729169531,0.24363588157669921,-0.24363588157669921,0.9698667729169531,584.8955517329542,187.36075493520173)" fill="none" stroke="#2f42a3" filter="url(#bbburst-blur-2)"></use><use xlink:href="#bbburst-shape-10" width="39.747309993552385" opacity="0.3063242822585581" transform="matrix(0.9713006838958869,0.78681318078905,-0.78681318078905,0.9713006838958869,532.8339766505446,-270.62533691220784)" fill="none" stroke="#2f42a3" filter="url(#bbburst-blur-3)"></use><use xlink:href="#bbburst-shape-13" width="40.16962254285064" opacity="0.28157517827120104" transform="matrix(1.2481982898208137,0.06708971074908526,-0.06708971074908526,1.2481982898208137,92.39276966223636,-6.789970320894156)" fill="none" stroke="#2f42a3" filter="url(#bbburst-blur-3)"></use><use xlink:href="#bbburst-shape-5" width="46.76884091095927" opacity="0.1762544950175623" transform="matrix(1.2102598825553863,0.3126835727649,-0.3126835727649,1.2102598825553863,216.71095175134968,-334.26029680706523)" fill="#2f42a3" filter="url(#bbburst-blur-3)"></use><use xlink:href="#bbburst-shape-10" width="20.591793615207138" opacity="0.7660883741834731" transform="matrix(0.8564720706086768,-0.5161933671283329,0.5161933671283329,0.8564720706086768,113.17877712989761,-14.49971127416103)" fill="none" stroke="#2f42a3" filter="url(#bbburst-blur-1)"></use><use xlink:href="#bbburst-shape-5" width="35.84758802827093" opacity="0.5346296389915721" transform="matrix(0.9752958389204661,0.22090275368230294,-0.22090275368230294,0.9752958389204661,676.9898311105679,42.991336446169385)" fill="#2f42a3" filter="url(#bbburst-blur-2)"></use><use xlink:href="#bbburst-shape-11" width="23.24151738654144" opacity="0.7441372177482481" transform="matrix(0.9920901557089327,-0.1255273792661417,0.1255273792661417,0.9920901557089327,227.0906654981634,-25.782712760322624)" fill="none" stroke="#2f42a3" filter="url(#bbburst-blur-1)"></use><use xlink:href="#bbburst-shape-3" width="34.41383299786119" opacity="0.48388789172275615" transform="matrix(0.943662898054512,-0.3309083480895576,0.3309083480895576,0.943662898054512,22.42477914857386,-11.322791780445243)" fill="#2f42a3" filter="url(#bbburst-blur-2)"></use><use xlink:href="#bbburst-shape-3" width="16.68909653345343" opacity="0.9166913914082092" transform="matrix(0.9115503247176812,-0.41118852793711314,0.41118852793711314,0.9115503247176812,227.31346288998316,1.3523557563650002)" fill="#2f42a3"></use><use xlink:href="#bbburst-shape-1" width="25.56276652374746" opacity="0.7334763359919778" transform="matrix(0.9076024710708939,-0.41983062597434123,0.41983062597434123,0.9076024710708939,322.74867437124817,105.01206142967214)" fill="#2f42a3" filter="url(#bbburst-blur-1)"></use><use xlink:href="#bbburst-shape-11" width="17.988532403133526" opacity="0.7887605040465462" transform="matrix(0.8015411245543347,-0.5979396505067819,0.5979396505067819,0.8015411245543347,100.92557200286464,163.78692526547655)" fill="none" stroke="#2f42a3"></use><use xlink:href="#bbburst-shape-3" width="32.70779512620973" opacity="0.19343032458193254" transform="matrix(1.2000414559581998,0.3498578339579148,-0.3498578339579148,1.2000414559581998,585.1442687800424,271.3111978063722)" fill="#2f42a3" filter="url(#bbburst-blur-3)"></use><use xlink:href="#bbburst-shape-13" width="43.18541850193112" opacity="0.18119955605328153" transform="matrix(1.179529224154491,-0.4137762793654375,0.4137762793654375,1.179529224154491,105.39901164769083,-416.46666981449323)" fill="none" stroke="#2f42a3" filter="url(#bbburst-blur-3)"></use><use xlink:href="#bbburst-shape-10" width="16.89554595667871" opacity="0.7858505015597116" transform="matrix(0.9958981016102765,-0.0904818833195216,0.0904818833195216,0.9958981016102765,428.46729451935124,-60.41972007266975)" fill="none" stroke="#2f42a3"></use><use xlink:href="#bbburst-shape-10" width="41.22064289684879" opacity="-0.07500835913142057" transform="matrix(1.4978616183971507,0.904936777975494,-0.904936777975494,1.4978616183971507,1080.4755319122473,116.80369691547992)" fill="none" stroke="#2f42a3" filter="url(#bbburst-blur-4)"></use><use xlink:href="#bbburst-shape-3" width="45.29375848966077" opacity="0.06644971277778455" transform="matrix(1.7309074333214327,0.25779731820290497,-0.25779731820290497,1.7309074333214327,232.61470323831844,-649.1283532173379)" fill="#2f42a3" filter="url(#bbburst-blur-4)"></use><use xlink:href="#bbburst-shape-13" width="37.51269689385563" opacity="0.3662066334378761" transform="matrix(0.994469172869345,0.10502887323284386,-0.10502887323284386,0.994469172869345,708.4113589658671,9.631733068805602)" fill="none" stroke="#2f42a3" filter="url(#bbburst-blur-2)"></use><use xlink:href="#bbburst-shape-1" width="22.04594785146685" opacity="0.6512621435239708" transform="matrix(0.9989685016486078,-0.045408509267926396,0.045408509267926396,0.9989685016486078,336.6976790509444,154.11758324265332)" fill="#2f42a3" filter="url(#bbburst-blur-1)"></use><use xlink:href="#bbburst-shape-13" width="25.087677619119223" opacity="0.6740161924275008" transform="matrix(0.9180848142541316,-0.3963839979564725,0.3963839979564725,0.9180848142541316,361.66258059959654,-26.80091578644459)" fill="none" stroke="#2f42a3" filter="url(#bbburst-blur-1)"></use><use xlink:href="#bbburst-shape-13" width="19.577595719984302" opacity="0.8135547501235211" transform="matrix(0.7713929793117136,0.6363590743193643,-0.6363590743193643,0.7713929793117136,679.7038151866104,162.4745222138253)" fill="none" stroke="#2f42a3"></use><use xlink:href="#bbburst-shape-3" width="29.471102753152188" opacity="0.193406653398301" transform="matrix(1.0953419257215173,0.6022674370715041,-0.6022674370715041,1.0953419257215173,985.3428506582545,-87.58703487185801)" fill="#2f42a3" filter="url(#bbburst-blur-3)"></use><use xlink:href="#bbburst-shape-13" width="19.145029262622007" opacity="0.8622678151317416" transform="matrix(0.7981224226189032,-0.6024953099509844,0.6024953099509844,0.7981224226189032,114.34418745398148,36.80776403128385)" fill="none" stroke="#2f42a3"></use><use xlink:href="#bbburst-shape-1" width="50.59791277557167" opacity="-0.061515177508593366" transform="matrix(1.540399484185572,-0.8304633821673436,0.8304633821673436,1.540399484185572,364.74969379794965,-534.7313770641849)" fill="#2f42a3" filter="url(#bbburst-blur-4)"></use><use xlink:href="#bbburst-shape-13" width="32.41949921312727" opacity="0.3316697003402336" transform="matrix(1.249899946744001,-0.015815281513240832,0.015815281513240832,1.249899946744001,104.79644850093023,-234.96157766477376)" fill="none" stroke="#2f42a3" filter="url(#bbburst-blur-3)"></use><use xlink:href="#bbburst-shape-11" width="11.913872974677663" opacity="0.9245977871346814" transform="matrix(0.99994944442938,0.010055276494163419,-0.010055276494163419,0.99994944442938,374.90592258697956,24.60347718691986)" fill="none" stroke="#2f42a3"></use><use xlink:href="#bbburst-shape-5" width="14.294652251520267" opacity="0.8393339583097027" transform="matrix(0.8352719373636275,0.5498370582752788,-0.5498370582752788,0.8352719373636275,543.7169408207847,44.859326031586306)" fill="#2f42a3"></use><use xlink:href="#bbburst-shape-5" width="23.178526220199547" opacity="0.8001280841151859" transform="matrix(0.8885950409310804,-0.4586925476097158,0.4586925476097158,0.8885950409310804,296.0410776760533,45.11677352562367)" fill="#2f42a3"></use><use xlink:href="#bbburst-shape-3" width="23.011354416884757" opacity="0.7584586184629839" transform="matrix(0.9316995829860045,0.3632297992507021,-0.3632297992507021,0.9316995829860045,527.4291656092563,131.57308329170934)" fill="#2f42a3" filter="url(#bbburst-blur-1)"></use><use xlink:href="#bbburst-shape-11" width="29.268919810590276" opacity="0.37406678678662375" transform="matrix(0.9944286820835967,0.10541155652717145,-0.10541155652717145,0.9944286820835967,517.7444753862875,267.18383556797863)" fill="none" stroke="#2f42a3" filter="url(#bbburst-blur-2)"></use><use xlink:href="#bbburst-shape-1" width="29.604106353411392" opacity="0.6870365824870791" transform="matrix(0.9241397546619362,0.38205459538314185,-0.38205459538314185,0.9241397546619362,599.3961611932136,-102.5623132217894)" fill="#2f42a3" filter="url(#bbburst-blur-1)"></use><use xlink:href="#bbburst-shape-10" width="36.610236758158514" opacity="0.19155524623568" transform="matrix(1.1547459002919553,0.47860412217084125,-0.47860412217084125,1.1547459002919553,821.8813074187551,-333.4507102373792)" fill="none" stroke="#2f42a3" filter="url(#bbburst-blur-3)"></use><use xlink:href="#bbburst-shape-11" width="38.62771024319068" opacity="0.21732218645995527" transform="matrix(1.2057896288397119,0.3295017010314055,-0.3295017010314055,1.2057896288397119,488.0301074929202,262.3193712449981)" fill="none" stroke="#2f42a3" filter="url(#bbburst-blur-3)"></use><use xlink:href="#bbburst-shape-11" width="22.453825730438822" opacity="0.7196384362995272" transform="matrix(0.9722086157744423,0.23411622629357157,-0.23411622629357157,0.9722086157744423,376.19041965571444,75.67212682599927)" fill="none" stroke="#2f42a3" filter="url(#bbburst-blur-1)"></use><use xlink:href="#bbburst-shape-11" width="34.961274175815205" opacity="0.12329988763570854" transform="matrix(1.2472477252042733,-0.08290423374451704,0.08290423374451704,1.2472477252042733,-14.861823108465785,-259.6992625104763)" fill="none" stroke="#2f42a3" filter="url(#bbburst-blur-3)"></use><use xlink:href="#bbburst-shape-13" width="27.311953627489938" opacity="0.37164101929797466" transform="matrix(0.9975342303884727,-0.0701816158497183,0.0701816158497183,0.9975342303884727,306.6250654831862,279.94339109668846)" fill="none" stroke="#2f42a3" filter="url(#bbburst-blur-2)"></use><use xlink:href="#bbburst-shape-11" width="33.01334763794261" opacity="0.3315419993760922" transform="matrix(1.2262701668971951,0.24240766856253837,-0.24240766856253837,1.2262701668971951,177.60399249580828,-125.8753326701804)" fill="none" stroke="#2f42a3" filter="url(#bbburst-blur-3)"></use><use xlink:href="#bbburst-shape-11" width="26.558314926277657" opacity="0.6234508128569833" transform="matrix(0.9976274406043741,0.06884395219019608,-0.06884395219019608,0.9976274406043741,248.8824293848969,-36.97941020384974)" fill="none" stroke="#2f42a3" filter="url(#bbburst-blur-1)"></use><use xlink:href="#bbburst-shape-3" width="26.640661160618976" opacity="0.5297674345467731" transform="matrix(0.9299186481485954,-0.36776528904382594,0.36776528904382594,0.9299186481485954,183.58186220654915,236.79903182320908)" fill="#2f42a3" filter="url(#bbburst-blur-2)"></use><use xlink:href="#bbburst-shape-11" width="25.6524396165192" opacity="0.6468887811608832" transform="matrix(0.9040734177001452,-0.42737718166507066,0.42737718166507066,0.9040734177001452,247.84656989693238,199.4920708217084)" fill="none" stroke="#2f42a3" filter="url(#bbburst-blur-1)"></use><use xlink:href="#bbburst-shape-3" width="42.76444763147994" opacity="0.1758838958388943" transform="matrix(1.0919191698188986,0.6084509237251655,-0.6084509237251655,1.0919191698188986,976.2927638858885,52.51018233044073)" fill="#2f42a3" filter="url(#bbburst-blur-3)"></use><use xlink:href="#bbburst-shape-5" width="38.70896545727094" opacity="0.3839762047335369" transform="matrix(0.7869401998910761,-0.6170292714251028,0.6170292714251028,0.7869401998910761,-82.59203094689855,265.10575589068543)" fill="#2f42a3" filter="url(#bbburst-blur-2)"></use><use xlink:href="#bbburst-shape-11" width="36.529136303205085" opacity="0.17402214131940497" transform="matrix(1.2119870342500891,0.30592062501517164,-0.30592062501517164,1.2119870342500891,652.7912524838472,248.05014139951868)" fill="none" stroke="#2f42a3" filter="url(#bbburst-blur-3)"></use><use xlink:href="#bbburst-shape-1" width="13.678785458831806" opacity="0.9129936112509713" transform="matrix(0.7532844608720634,-0.6576948540232658,0.6576948540232658,0.7532844608720634,145.16964738690484,139.99050811442697)" fill="#2f42a3"></use><use xlink:href="#bbburst-shape-3" width="33.76498159325489" opacity="0.16070164485458693" transform="matrix(0.9642360814430379,-0.7954550768229312,0.7954550768229312,0.9642360814430379,-59.125069389947726,384.3975473210354)" fill="#2f42a3" filter="url(#bbburst-blur-3)"></use><use xlink:href="#bbburst-shape-3" width="14.820128890225952" opacity="0.8964820441188832" transform="matrix(0.9997250817256255,0.02344698208067414,-0.02344698208067414,0.9997250817256255,443.5937445268555,-20.868954690848796)" fill="#2f42a3"></use><use xlink:href="#bbburst-shape-3" width="34.48461823372095" opacity="0.5121536401505684" transform="matrix(0.8730992936438563,-0.4875424324493194,0.4875424324493194,0.8730992936438563,244.1676494153359,-153.46489796415065)" fill="#2f42a3" filter="url(#bbburst-blur-2)"></use><use xlink:href="#bbburst-shape-13" width="53.36184796497771" opacity="-0.07340670229019697" transform="matrix(1.5606903737867106,-0.7916726325757999,0.7916726325757999,1.5606903737867106,-312.09988168515423,125.71325690336596)" fill="none" stroke="#2f42a3" filter="url(#bbburst-blur-4)"></use><use xlink:href="#bbburst-shape-11" width="18.093939282597038" opacity="0.8446036176000576" transform="matrix(0.9528369310826578,0.30348275530082847,-0.30348275530082847,0.9528369310826578,450.51550302238877,47.60213566476966)" fill="none" stroke="#2f42a3"></use><use xlink:href="#bbburst-shape-13" width="26.165843432933585" opacity="0.5134086781570599" transform="matrix(0.9885983672659068,-0.15057645313654852,0.15057645313654852,0.9885983672659068,138.65315492068018,-105.42245698536817)" fill="none" stroke="#2f42a3" filter="url(#bbburst-blur-2)"></use><use xlink:href="#bbburst-shape-3" width="40.98613521111204" opacity="0.1116739946596188" transform="matrix(1.249927831884948,0.01343186805298538,-0.01343186805298538,1.249927831884948,17.726359676842144,69.66951012737269)" fill="#2f42a3" filter="url(#bbburst-blur-3)"></use><use xlink:href="#bbburst-shape-5" width="27.10724310492663" opacity="0.4945438009707286" transform="matrix(0.9103391722182168,0.41386301057844227,-0.41386301057844227,0.9103391722182168,575.7068451185557,256.5946829824352)" fill="#2f42a3" filter="url(#bbburst-blur-2)"></use><use xlink:href="#bbburst-shape-5" width="34.12261772663736" opacity="0.2017830475056458" transform="matrix(1.045578217042263,-0.6850300665275373,0.6850300665275373,1.045578217042263,141.6842288821253,-364.17253312649024)" fill="#2f42a3" filter="url(#bbburst-blur-3)"></use><use xlink:href="#bbburst-shape-13" width="25.48308448180119" opacity="0.6314928971007086" transform="matrix(0.9869601427622066,-0.1609648303164539,0.1609648303164539,0.9869601427622066,234.48846511893356,-132.9395597282948)" fill="none" stroke="#2f42a3" filter="url(#bbburst-blur-1)"></use><use xlink:href="#bbburst-shape-11" width="33.68722078876527" opacity="0.5068616072506105" transform="matrix(0.8982039869901193,0.4395788868394995,-0.4395788868394995,0.8982039869901193,492.8396929441237,-178.29529334179054)" fill="none" stroke="#2f42a3" filter="url(#bbburst-blur-2)"></use><use xlink:href="#bbburst-shape-3" width="30.951694441191126" opacity="0.5692713258633102" transform="matrix(0.9778081988361348,-0.20950209137102624,0.20950209137102624,0.9778081988361348,431.6800126257192,-130.9620155044782)" fill="#2f42a3" filter="url(#bbburst-blur-1)"></use><use xlink:href="#bbburst-shape-1" width="38.50072648171458" opacity="0.570855737483927" transform="matrix(0.9705692121930688,-0.24082235017316359,0.24082235017316359,0.9705692121930688,444.7303008553356,124.98909417479257)" fill="#2f42a3" filter="url(#bbburst-blur-1)"></use><use xlink:href="#bbburst-shape-3" width="53.222935706694095" opacity="-0.07001517399239487" transform="matrix(1.7384824258293743,0.2004466389900656,-0.2004466389900656,1.7384824258293743,83.5326092088693,-631.4161969156951)" fill="#2f42a3" filter="url(#bbburst-blur-4)"></use><use xlink:href="#bbburst-shape-13" width="33.83728747416709" opacity="0.18409935691324297" transform="matrix(0.9630347501428429,-0.7969090726157608,0.7969090726157608,0.9630347501428429,-302.1931834625426,24.53589343802804)" fill="none" stroke="#2f42a3" filter="url(#bbburst-blur-3)"></use><use xlink:href="#bbburst-shape-1" width="32.3739085715246" opacity="0.3727280744106539" transform="matrix(0.7786528170866209,-0.6274550106924554,0.6274550106924554,0.7786528170866209,107.75951026081844,-182.08356378113137)" fill="#2f42a3" filter="url(#bbburst-blur-2)"></use><use xlink:href="#bbburst-shape-11" width="33.79994148793388" opacity="0.447593243822896" transform="matrix(0.9835152494830874,0.18082520298404267,-0.18082520298404267,0.9835152494830874,288.75133033024093,-180.98947938202062)" fill="none" stroke="#2f42a3" filter="url(#bbburst-blur-2)"></use><use xlink:href="#bbburst-shape-1" width="28.965678028406916" opacity="0.4664785910575583" transform="matrix(0.9860753352374457,0.1662992280089088,-0.1662992280089088,0.9860753352374457,219.40548707620053,61.78404013628716)" fill="#2f42a3" filter="url(#bbburst-blur-2)"></use><use xlink:href="#bbburst-shape-5" width="29.19806563724567" opacity="0.5111154490859012" transform="matrix(0.8739987239069104,-0.4859282154897906,0.4859282154897906,0.8739987239069104,401.6500670906388,-11.857274992397436)" fill="#2f42a3" filter="url(#bbburst-blur-2)"></use><use xlink:href="#bbburst-shape-1" width="27.67514306450704" opacity="0.6798863134502275" transform="matrix(0.9870352509030547,0.16050362449098757,-0.16050362449098757,0.9870352509030547,368.26591214484415,121.24610239725229)" fill="#2f42a3" filter="url(#bbburst-blur-1)"></use><use xlink:href="#bbburst-shape-1" width="29.466372282875085" opacity="0.2551256254955002" transform="matrix(1.0474594981931216,-0.6821499832478296,0.6821499832478296,1.0474594981931216,-70.95225828347583,272.1410455544692)" fill="#2f42a3" filter="url(#bbburst-blur-3)"></use><use xlink:href="#bbburst-shape-5" width="37.52497019509557" opacity="0.16950063276844574" transform="matrix(1.0739784433412365,-0.639586040528039,0.639586040528039,1.0739784433412365,-163.1304279973764,221.61089644782186)" fill="#2f42a3" filter="url(#bbburst-blur-3)"></use><use xlink:href="#bbburst-shape-13" width="42.03996910490691" opacity="0.4005861937446611" transform="matrix(0.8759452546221976,-0.4824105211382244,0.4824105211382244,0.8759452546221976,376.4571089231039,-133.82537798234407)" fill="none" stroke="#2f42a3" filter="url(#bbburst-blur-2)"></use><use xlink:href="#bbburst-shape-1" width="29.135873760345653" opacity="0.5741919166744578" transform="matrix(0.9903260213690334,0.1387601217907392,-0.1387601217907392,0.9903260213690334,277.1733684835797,101.147993880287)" fill="#2f42a3" filter="url(#bbburst-blur-1)"></use><use xlink:href="#bbburst-shape-13" width="21.632306512170487" opacity="0.6744108991875224" transform="matrix(0.9414234777535784,-0.33722668271410217,0.33722668271410217,0.9414234777535784,401.2018740360479,35.460228601981726)" fill="none" stroke="#2f42a3" filter="url(#bbburst-blur-1)"></use><use xlink:href="#bbburst-shape-5" width="26.558632765544733" opacity="0.6207270057821117" transform="matrix(0.9916702522702023,0.1288026038648028,-0.1288026038648028,0.9916702522702023,269.7643718201045,28.216970299336992)" fill="#2f42a3" filter="url(#bbburst-blur-1)"></use><use xlink:href="#bbburst-shape-5" width="18.500032437302913" opacity="0.8215490545384881" transform="matrix(0.9544527905432236,0.29836197918678126,-0.29836197918678126,0.9544527905432236,533.3634659693981,-61.52508916259933)" fill="#2f42a3"></use><use xlink:href="#bbburst-shape-5" width="38.786428191491105" opacity="0.042045286925090464" transform="matrix(1.7146475898709295,0.3499766314338901,-0.3499766314338901,1.7146475898709295,259.44309490375133,60.44699141233275)" fill="#2f42a3" filter="url(#bbburst-blur-4)"></use><use xlink:href="#bbburst-shape-13" width="29.593604144781278" opacity="0.6585535213448683" transform="matrix(0.9895889010346611,-0.14392292016566235,0.14392292016566235,0.9895889010346611,201.79061933343837,-81.64480574272699)" fill="none" stroke="#2f42a3" filter="url(#bbburst-blur-1)"></use><use xlink:href="#bbburst-shape-13" width="17.55226957106771" opacity="0.8575634761067632" transform="matrix(0.9757656991100753,-0.2188179618775067,0.2188179618775067,0.9757656991100753,287.3825642966528,73.54323287276236)" fill="none" stroke="#2f42a3"></use><use xlink:href="#bbburst-shape-10" width="14.707786981298145" opacity="0.9249462814995909" transform="matrix(0.806465684126979,0.5912808979880914,-0.5912808979880914,0.806465684126979,597.6616292299072,65.51806383923434)" fill="none" stroke="#2f42a3"></use><use xlink:href="#bbburst-shape-5" width="45.157570552347906" opacity="0.36298986512348896" transform="matrix(0.9999822725028323,-0.005954383265393755,0.005954383265393755,0.9999822725028323,634.5299338979231,121.94360074071278)" fill="#2f42a3" filter="url(#bbburst-blur-2)"></use><use xlink:href="#bbburst-shape-11" width="27.76062169864449" opacity="0.6459927895023182" transform="matrix(0.9807802557529721,-0.1951155809389259,0.1951155809389259,0.9807802557529721,301.97177288542935,-149.13337929348108)" fill="none" stroke="#2f42a3" filter="url(#bbburst-blur-1)"></use><use xlink:href="#bbburst-shape-3" width="18.53203382153087" opacity="0.8598681941957913" transform="matrix(0.9749621385160632,-0.22237092539310255,0.22237092539310255,0.9749621385160632,356.4656495006231,43.78324559327575)" fill="#2f42a3"></use><use xlink:href="#bbburst-shape-5" width="19.368445881214637" opacity="0.6970894556455012" transform="matrix(0.9073163815966085,0.42044855058192016,-0.42044855058192016,0.9073163815966085,633.7656699192202,147.23403564763487)" fill="#2f42a3" filter="url(#bbburst-blur-1)"></use><use xlink:href="#bbburst-shape-13" width="24.09701289646428" opacity="0.5508943507717773" transform="matrix(0.8528324185823034,0.5221847046927541,-0.5221847046927541,0.8528324185823034,471.188406887694,209.45146400260774)" fill="none" stroke="#2f42a3" filter="url(#bbburst-blur-2)"></use><use xlink:href="#bbburst-shape-5" width="18.320417424778732" opacity="0.7696017358999041" transform="matrix(0.9967919966148265,0.0800357138071981,-0.0800357138071981,0.9967919966148265,400.3600986628362,-100.65308208680369)" fill="#2f42a3" filter="url(#bbburst-blur-1)"></use><use xlink:href="#bbburst-shape-5" width="29.06746947348274" opacity="0.3990892700843175" transform="matrix(0.9663254532752904,-0.25732298450061664,0.25732298450061664,0.9663254532752904,470.65630686613395,211.93132874132687)" fill="#2f42a3" filter="url(#bbburst-blur-2)"></use><use xlink:href="#bbburst-shape-10" width="39.74473019328224" opacity="0.31217709955491535" transform="matrix(1.2499733461574696,0.00816295877111276,-0.00816295877111276,1.2499733461574696,662.3728265092191,-223.34486640695758)" fill="none" stroke="#2f42a3" filter="url(#bbburst-blur-3)"></use><use xlink:href="#bbburst-shape-11" width="48.76649592846216" opacity="0.1109955822797809" transform="matrix(1.2889115912764424,-1.1837258592567912,1.1837258592567912,1.2889115912764424,230.48987237427986,129.383526300636)" fill="none" stroke="#2f42a3" filter="url(#bbburst-blur-4)"></use><use xlink:href="#bbburst-shape-13" width="12.85606722997562" opacity="0.9790766534700077" transform="matrix(0.9026958562763383,0.4302792012885685,-0.4302792012885685,0.9026958562763383,575.6324493186279,37.47004626157508)" fill="none" stroke="#2f42a3"></use><use xlink:href="#bbburst-shape-1" width="40.56248521702704" opacity="0.21697598639582982" transform="matrix(1.0830705899264028,0.6240657795749369,-0.6240657795749369,1.0830705899264028,861.5323169606942,217.69906751975725)" fill="#2f42a3" filter="url(#bbburst-blur-3)"></use><use xlink:href="#bbburst-shape-11" width="16.327773637336602" opacity="0.7517004318213304" transform="matrix(0.8473240590588229,-0.5310762082225868,0.5310762082225868,0.8473240590588229,70.41921307975664,84.14890270602808)" fill="none" stroke="#2f42a3" filter="url(#bbburst-blur-1)"></use></svg>