<svg xmlns="http://www.w3.org/2000/svg" version="1.1" xmlns:xlink="http://www.w3.org/1999/xlink" xmlns:svgjs="http://svgjs.dev/svgjs" viewBox="0 0 800 800" opacity="1"><defs><filter id="bbburst-blur-1" x="-100%" y="-100%" width="400%" height="400%"><feGaussianBlur in="SourceGraphic" stdDeviation="1"></feGaussianBlur></filter><filter id="bbburst-blur-2" x="-100%" y="-100%" width="400%" height="400%"><feGaussianBlur in="SourceGraphic" stdDeviation="2"></feGaussianBlur></filter><filter id="bbburst-blur-3" x="-100%" y="-100%" width="400%" height="400%"><feGaussianBlur in="SourceGraphic" stdDeviation="4"></feGaussianBlur></filter><filter id="bbburst-blur-4" x="-100%" y="-100%" width="400%" height="400%"><feGaussianBlur in="SourceGraphic" stdDeviation="12"></feGaussianBlur></filter><symbol id="bbburst-shape-1" viewBox="0 0 194 167"><path d="m97 0 96.129 166.5H.871L97 0Z"></path></symbol><symbol id="bbburst-shape-3" viewBox="0 0 131 127"><path d="m66 0 66 63.5L66 127 0 63.5 66 0Z"></path></symbol><symbol id="bbburst-shape-5" viewBox="0 0 145 145"><circle cx="72.5" cy="72.5" r="72.5"></circle></symbol><symbol id="bbburst-shape-10" viewBox="0 0 145 145"><circle cx="72.5" cy="72.5" r="61.5" fill="none" stroke-width="22"></circle></symbol><symbol id="bbburst-shape-11" viewBox="0 0 194 167"><path d="M10.398 161 97 11l86.603 150H10.397Z" stroke-width="11"></path></symbol><symbol id="bbburst-shape-13" viewBox="0 0 159 159"><path stroke-width="22" d="M11 11h137v137H11z"></path></symbol></defs><use xlink:href="#bbburst-shape-10" width="60.79847720156719" opacity="-0.0027632322052779656" transform="matrix(0.9980594838449461,-0.062267701958236506,0.062267701958236506,0.9980594838449461,44.018895256958274,-314.6218479934958)" fill="none" stroke="#ffffff" filter="url(#bbburst-blur-3)"></use><use xlink:href="#bbburst-shape-1" width="52.77557306953938" opacity="0.24518143040758167" transform="matrix(0.9903666774454233,0.13846965084708227,-0.13846965084708227,0.9903666774454233,720.9841223174828,-346.7477252245624)" fill="#ffffff" filter="url(#bbburst-blur-3)"></use><use xlink:href="#bbburst-shape-5" width="32.80340586087835" opacity="0.7320017495651203" transform="matrix(0.9937106954533365,-0.11197791631230823,0.11197791631230823,0.9937106954533365,475.19400073194925,356.63670117925085)" fill="#ffffff"></use><use xlink:href="#bbburst-shape-10" width="57.61911404785158" opacity="0.29966148999729814" transform="matrix(0.9877838679151377,-0.15583013279404495,0.15583013279404495,0.9877838679151377,99.41865289986644,64.95151237289139)" fill="none" stroke="#ffffff" filter="url(#bbburst-blur-2)"></use><use xlink:href="#bbburst-shape-13" width="20.13446032552921" opacity="0.8947585111636062" transform="matrix(0.85079295781427,0.5255010398977776,-0.5255010398977776,0.85079295781427,900.6461068276267,424.7790275454629)" fill="none" stroke="#ffffff"></use><use xlink:href="#bbburst-shape-1" width="22.64842106462478" opacity="0.79856487346551" transform="matrix(0.9408280670473153,-0.33888426970872,0.33888426970872,0.9408280670473153,453.74868746323386,403.98043554803075)" fill="#ffffff"></use><use xlink:href="#bbburst-shape-3" width="26.121656403095173" opacity="0.6698463471380836" transform="matrix(0.7730718712411484,-0.6343184388741268,0.6343184388741268,0.7730718712411484,207.6279731909184,465.82524420959027)" fill="#ffffff"></use><use xlink:href="#bbburst-shape-13" width="41.377460481354554" opacity="0.6790090012858233" transform="matrix(0.7497591571607615,0.6617108176942437,-0.6617108176942437,0.7497591571607615,999.7705133639545,169.23980041432577)" fill="none" stroke="#ffffff"></use><use xlink:href="#bbburst-shape-13" width="21.975130196322848" opacity="0.8477725731047283" transform="matrix(0.9023226587668929,-0.4310612711388549,0.4310612711388549,0.9023226587668929,470.0510311913282,406.5992465160208)" fill="none" stroke="#ffffff"></use><use xlink:href="#bbburst-shape-13" width="70.7809594731022" opacity="0.2405270709211058" transform="matrix(0.9513557677485938,0.30809447117967526,-0.30809447117967526,0.9513557677485938,160.9733270272681,194.1999569859853)" fill="none" stroke="#ffffff" filter="url(#bbburst-blur-3)"></use><use xlink:href="#bbburst-shape-10" width="41.53501794237505" opacity="0.3917776187653935" transform="matrix(0.8937359439881005,-0.4485934266389765,0.4485934266389765,0.8937359439881005,-2.81330380251876,387.53367084471563)" fill="none" stroke="#ffffff" filter="url(#bbburst-blur-2)"></use><use xlink:href="#bbburst-shape-3" width="27.466718195977997" opacity="0.8445319498770982" transform="matrix(0.9988112533493971,-0.0487450529039249,0.0487450529039249,0.9988112533493971,642.4194729361794,307.7178335342538)" fill="#ffffff"></use><use xlink:href="#bbburst-shape-11" width="49.454406408211035" opacity="0.33730040281149953" transform="matrix(0.9505722470515192,0.3105034671874463,-0.3105034671874463,0.9505722470515192,403.6831827061886,-26.635707139868714)" fill="none" stroke="#ffffff" filter="url(#bbburst-blur-2)"></use><use xlink:href="#bbburst-shape-13" width="59.25310530209818" opacity="0.3251025083914244" transform="matrix(0.8081834687698883,-0.5889307945820722,0.5889307945820722,0.8081834687698883,308.3123411982227,-139.53112569112696)" fill="none" stroke="#ffffff" filter="url(#bbburst-blur-2)"></use><use xlink:href="#bbburst-shape-5" width="59.10715212998985" opacity="0.17445286124002923" transform="matrix(0.7282024900657664,-0.6853620455365305,0.6853620455365305,0.7282024900657664,-227.1179107136819,146.2130490780919)" fill="#ffffff" filter="url(#bbburst-blur-3)"></use><use xlink:href="#bbburst-shape-3" width="50.1448366662686" opacity="0.5698281401285048" transform="matrix(0.7824356228417445,0.622731479939991,-0.622731479939991,0.7824356228417445,872.8725608992481,70.58084743715443)" fill="#ffffff" filter="url(#bbburst-blur-1)"></use><use xlink:href="#bbburst-shape-10" width="41.66772954843427" opacity="0.5607736773633452" transform="matrix(0.9665075614472085,-0.2566381375894286,0.2566381375894286,0.9665075614472085,422.88208347868493,60.64074254435354)" fill="none" stroke="#ffffff" filter="url(#bbburst-blur-1)"></use><use xlink:href="#bbburst-shape-11" width="48.578344339778965" opacity="0.5233291948497705" transform="matrix(0.8644072435550346,0.5027923202372795,-0.5027923202372795,0.8644072435550346,537.2047423688877,266.0949771657305)" fill="none" stroke="#ffffff" filter="url(#bbburst-blur-1)"></use><use xlink:href="#bbburst-shape-3" width="25.22582471813771" opacity="0.8827273192282427" transform="matrix(0.8697080279360548,0.49356655695415436,-0.49356655695415436,0.8697080279360548,913.3401636232502,354.08864188681804)" fill="#ffffff"></use><use xlink:href="#bbburst-shape-10" width="56.87668989615658" opacity="0.4386275968844623" transform="matrix(0.997499711710298,-0.07067053939140563,0.07067053939140563,0.997499711710298,266.4450493408102,106.89034592081185)" fill="none" stroke="#ffffff" filter="url(#bbburst-blur-2)"></use><use xlink:href="#bbburst-shape-11" width="37.25777259627684" opacity="0.6201591280686687" transform="matrix(0.9985226637733107,-0.05433681929458141,0.05433681929458141,0.9985226637733107,432.2042550874637,208.59751265274326)" fill="none" stroke="#ffffff" filter="url(#bbburst-blur-1)"></use><use xlink:href="#bbburst-shape-1" width="51.80833495462443" opacity="0.3584870491082548" transform="matrix(0.8212042180730585,-0.5706344120529505,0.5706344120529505,0.8212042180730585,480.86676964191184,-151.3663359426917)" fill="#ffffff" filter="url(#bbburst-blur-2)"></use><use xlink:href="#bbburst-shape-13" width="21.951287678114646" opacity="0.784787252658185" transform="matrix(0.7108282329902508,0.7033656397521547,-0.7033656397521547,0.7108282329902508,903.7021914615614,375.7741938876865)" fill="none" stroke="#ffffff"></use><use xlink:href="#bbburst-shape-11" width="80.24529438187703" opacity="0.29304834230552845" transform="matrix(0.9279873093640916,0.3726118002146386,-0.3726118002146386,0.9279873093640916,508.38097056156295,-167.37489638075456)" fill="none" stroke="#ffffff" filter="url(#bbburst-blur-2)"></use><use xlink:href="#bbburst-shape-3" width="70.17628591742505" opacity="0.089974274074481" transform="matrix(0.8572711335510624,0.5148652285599374,-0.5148652285599374,0.8572711335510624,248.3599719313308,-108.11822069255655)" fill="#ffffff" filter="url(#bbburst-blur-3)"></use><use xlink:href="#bbburst-shape-11" width="41.90368255959524" opacity="0.5841537190075676" transform="matrix(0.8959086632511634,-0.4442382999151621,0.4442382999151621,0.8959086632511634,551.1410686193642,37.897376187057944)" fill="none" stroke="#ffffff" filter="url(#bbburst-blur-1)"></use><use xlink:href="#bbburst-shape-5" width="58.97788024354364" opacity="0.19795486962174702" transform="matrix(0.9915226536567823,0.12993393431052763,-0.12993393431052763,0.9915226536567823,243.1348540911756,-154.82365466588936)" fill="#ffffff" filter="url(#bbburst-blur-3)"></use><use xlink:href="#bbburst-shape-1" width="48.772308036228615" opacity="0.44681753468569807" transform="matrix(0.8374295802730893,-0.5465452388262453,0.5465452388262453,0.8374295802730893,189.6777285395888,68.36671068558763)" fill="#ffffff" filter="url(#bbburst-blur-2)"></use><use xlink:href="#bbburst-shape-1" width="21.86114376790612" opacity="0.9317428919267593" transform="matrix(0.8125700979227315,0.5828634796947245,-0.5828634796947245,0.8125700979227315,999.6283584071497,404.96103929350807)" fill="#ffffff"></use><use xlink:href="#bbburst-shape-1" width="28.088414284305838" opacity="0.7385074228339628" transform="matrix(0.8225908710669027,-0.5686336771924385,0.5686336771924385,0.8225908710669027,399.94166431737966,272.9844867984095)" fill="#ffffff"></use><use xlink:href="#bbburst-shape-10" width="28.80891282326543" opacity="0.6422490653838565" transform="matrix(0.9936991816073203,-0.11208004493638425,0.11208004493638425,0.9936991816073203,401.263906659549,291.5998484825704)" fill="none" stroke="#ffffff" filter="url(#bbburst-blur-1)"></use><use xlink:href="#bbburst-shape-13" width="35.17569727089765" opacity="0.49775171579694233" transform="matrix(0.7245578594363971,-0.6892139786227106,0.6892139786227106,0.7245578594363971,13.81552614070489,455.2701341876916)" fill="none" stroke="#ffffff" filter="url(#bbburst-blur-1)"></use><use xlink:href="#bbburst-shape-10" width="52.317743479288566" opacity="0.45571225803597515" transform="matrix(0.9563397824839948,0.2922571135806031,-0.2922571135806031,0.9563397824839948,734.165991498843,-111.11626636872978)" fill="none" stroke="#ffffff" filter="url(#bbburst-blur-1)"></use><use xlink:href="#bbburst-shape-10" width="19.19015838790367" opacity="0.9722041801630615" transform="matrix(0.7900707109089287,-0.6130157190185747,0.6130157190185747,0.7900707109089287,527.5462761823122,470.2110984744869)" fill="none" stroke="#ffffff"></use><use xlink:href="#bbburst-shape-10" width="17.18980113486614" opacity="0.9337377371428492" transform="matrix(0.741371653495871,0.6710946813921254,-0.6710946813921254,0.741371653495871,1001.9844049297127,469.7386316703734)" fill="none" stroke="#ffffff"></use><use xlink:href="#bbburst-shape-5" width="38.27806705979492" opacity="0.6722996542557953" transform="matrix(0.9854948887808227,0.16970510948959028,-0.16970510948959028,0.9854948887808227,702.2270829198985,109.57082253164361)" fill="#ffffff"></use><use xlink:href="#bbburst-shape-13" width="48.584070634005826" opacity="0.6505931992592517" transform="matrix(0.879068059276006,0.47669628398039415,-0.47669628398039415,0.879068059276006,726.0128477359187,186.0245921725164)" fill="none" stroke="#ffffff"></use><use xlink:href="#bbburst-shape-10" width="23.52078691608406" opacity="0.8092771108633474" transform="matrix(0.8623756716295246,0.5062689018511075,-0.5062689018511075,0.8623756716295246,894.475335652151,285.4110607540355)" fill="none" stroke="#ffffff"></use><use xlink:href="#bbburst-shape-11" width="78.09452795241465" opacity="0.11954053379310803" transform="matrix(0.8736068678268121,-0.48663234632094376,0.48663234632094376,0.8736068678268121,63.020079757435155,-250.6421005849591)" fill="none" stroke="#ffffff" filter="url(#bbburst-blur-3)"></use><use xlink:href="#bbburst-shape-11" width="29.185231734816796" opacity="0.7116382068410098" transform="matrix(0.9816405729716393,0.19074009933915764,-0.19074009933915764,0.9816405729716393,615.1853867678022,255.14820206832388)" fill="none" stroke="#ffffff"></use><use xlink:href="#bbburst-shape-3" width="60.40472139063526" opacity="0.4335446765374855" transform="matrix(0.9998584093488728,0.016827395946546284,-0.016827395946546284,0.9998584093488728,498.5567611481435,-94.14466183234492)" fill="#ffffff" filter="url(#bbburst-blur-2)"></use><use xlink:href="#bbburst-shape-1" width="26.847037068064115" opacity="0.7761642095011706" transform="matrix(0.9452849621209558,0.3262458281541439,-0.3262458281541439,0.9452849621209558,709.6658885041007,335.1774208438845)" fill="#ffffff"></use><use xlink:href="#bbburst-shape-11" width="17.330175246630436" opacity="0.8821542291689609" transform="matrix(0.8768718546036497,-0.4807241939032774,0.4807241939032774,0.8768718546036497,572.623292893066,338.60034261489506)" fill="none" stroke="#ffffff"></use><use xlink:href="#bbburst-shape-1" width="31.237104907238468" opacity="0.7577984674937146" transform="matrix(0.8709934474376012,-0.4912946310726004,0.4912946310726004,0.8709934474376012,536.049845183528,223.17133601526086)" fill="#ffffff"></use><use xlink:href="#bbburst-shape-5" width="38.58937105948431" opacity="0.587548320511557" transform="matrix(0.9411024135571889,-0.3381216455609337,0.3381216455609337,0.9411024135571889,237.3640329187715,378.62441628255687)" fill="#ffffff" filter="url(#bbburst-blur-1)"></use><use xlink:href="#bbburst-shape-3" width="43.26199291823218" opacity="0.47742023328181094" transform="matrix(0.9489000089170173,0.31557688932696665,-0.31557688932696665,0.9489000089170173,856.3109726257517,-106.69336115578761)" fill="#ffffff" filter="url(#bbburst-blur-1)"></use><use xlink:href="#bbburst-shape-11" width="52.626734229417636" opacity="0.19789964990166975" transform="matrix(0.9999688678393386,0.007890713029336041,-0.007890713029336041,0.9999688678393386,456.76382614475983,-336.3394578113029)" fill="none" stroke="#ffffff" filter="url(#bbburst-blur-3)"></use><use xlink:href="#bbburst-shape-3" width="47.99442077700324" opacity="0.5445103441415593" transform="matrix(0.987178644230854,0.1596193107820382,-0.1596193107820382,0.987178644230854,484.4523908958256,116.53598272682444)" fill="#ffffff" filter="url(#bbburst-blur-1)"></use><use xlink:href="#bbburst-shape-11" width="60.977298507252776" opacity="0.2655813426846164" transform="matrix(0.9967859331915588,0.08011119392090665,-0.08011119392090665,0.9967859331915588,70.54431411391755,329.0845167450143)" fill="none" stroke="#ffffff" filter="url(#bbburst-blur-2)"></use><use xlink:href="#bbburst-shape-10" width="64.6014188458292" opacity="0.3855301895345471" transform="matrix(0.7438952612427544,0.6682962219708968,-0.6682962219708968,0.7438952612427544,460.3626367597267,286.5138102512824)" fill="none" stroke="#ffffff" filter="url(#bbburst-blur-2)"></use><use xlink:href="#bbburst-shape-11" width="28.586802682636076" opacity="0.8257190610851448" transform="matrix(0.8027588166247263,-0.5963038506762045,0.5963038506762045,0.8027588166247263,519.6883574091053,315.4613190523099)" fill="none" stroke="#ffffff"></use></svg>