<svg xmlns="http://www.w3.org/2000/svg" version="1.1" xmlns:xlink="http://www.w3.org/1999/xlink" xmlns:svgjs="http://svgjs.dev/svgjs" viewBox="0 0 800 800" opacity="1"><defs><filter id="bbburst-blur-1" x="-100%" y="-100%" width="400%" height="400%"><feGaussianBlur in="SourceGraphic" stdDeviation="1"></feGaussianBlur></filter><filter id="bbburst-blur-2" x="-100%" y="-100%" width="400%" height="400%"><feGaussianBlur in="SourceGraphic" stdDeviation="2"></feGaussianBlur></filter><filter id="bbburst-blur-3" x="-100%" y="-100%" width="400%" height="400%"><feGaussianBlur in="SourceGraphic" stdDeviation="4"></feGaussianBlur></filter><filter id="bbburst-blur-4" x="-100%" y="-100%" width="400%" height="400%"><feGaussianBlur in="SourceGraphic" stdDeviation="12"></feGaussianBlur></filter><symbol id="bbburst-shape-1" viewBox="0 0 194 167"><path d="m97 0 96.129 166.5H.871L97 0Z"></path></symbol><symbol id="bbburst-shape-3" viewBox="0 0 131 127"><path d="m66 0 66 63.5L66 127 0 63.5 66 0Z"></path></symbol><symbol id="bbburst-shape-5" viewBox="0 0 145 145"><circle cx="72.5" cy="72.5" r="72.5"></circle></symbol><symbol id="bbburst-shape-10" viewBox="0 0 145 145"><circle cx="72.5" cy="72.5" r="61.5" fill="none" stroke-width="22"></circle></symbol><symbol id="bbburst-shape-11" viewBox="0 0 194 167"><path d="M10.398 161 97 11l86.603 150H10.397Z" stroke-width="11"></path></symbol><symbol id="bbburst-shape-13" viewBox="0 0 159 159"><path stroke-width="22" d="M11 11h137v137H11z"></path></symbol></defs><use xlink:href="#bbburst-shape-5" width="28.28285600666204" opacity="0.667990195804049" transform="matrix(0.8389896294457201,-0.5441474080454058,0.5441474080454058,0.8389896294457201,240.21848905005592,438.03825508613255)" fill="#5a6ab9"></use><use xlink:href="#bbburst-shape-11" width="24.676226195050308" opacity="0.6117279346802386" transform="matrix(0.9178774656039075,0.39686390379643716,-0.39686390379643716,0.9178774656039075,853.3472042283305,50.988808410566946)" fill="none" stroke="#5a6ab9" filter="url(#bbburst-blur-1)"></use><use xlink:href="#bbburst-shape-11" width="11.192889908431521" opacity="0.9564306088830701" transform="matrix(0.9185595286517613,-0.3952826739474602,0.3952826739474602,0.9185595286517613,596.6618581300606,417.44834286535036)" fill="none" stroke="#5a6ab9"></use><use xlink:href="#bbburst-shape-10" width="13.664334198324852" opacity="0.8898001610848311" transform="matrix(0.720762512456087,0.693182083321539,-0.693182083321539,0.720762512456087,1027.47658830234,406.3085779210421)" fill="none" stroke="#5a6ab9"></use><use xlink:href="#bbburst-shape-11" width="34.7491815169292" opacity="0.6037622164889732" transform="matrix(0.9904261756218706,0.1380434375225255,-0.1380434375225255,0.9904261756218706,443.85879631940134,360.97299589002796)" fill="none" stroke="#5a6ab9" filter="url(#bbburst-blur-1)"></use><use xlink:href="#bbburst-shape-11" width="24.718089470599793" opacity="0.6725062921412671" transform="matrix(0.7375230474578613,-0.6753219635614327,0.6753219635614327,0.7375230474578613,262.17331642122014,311.86041048368094)" fill="none" stroke="#5a6ab9"></use><use xlink:href="#bbburst-shape-5" width="19.014716178261775" opacity="0.8109859444911659" transform="matrix(0.9470451727859719,-0.3211003592380248,0.3211003592380248,0.9470451727859719,589.5018457305819,249.90916146211532)" fill="#5a6ab9"></use><use xlink:href="#bbburst-shape-1" width="9.005186388882123" opacity="0.9805086169831132" transform="matrix(0.9853606407775032,-0.170482866020455,0.170482866020455,0.9853606407775032,714.4758864231262,392.0197309492875)" fill="#5a6ab9"></use><use xlink:href="#bbburst-shape-10" width="50.14729505822173" opacity="0.2330390869564668" transform="matrix(0.812972416354901,-0.582302198386777,0.582302198386777,0.812972416354901,-28.437714234742685,-17.985313121839965)" fill="none" stroke="#5a6ab9" filter="url(#bbburst-blur-3)"></use><use xlink:href="#bbburst-shape-10" width="20.28350103123082" opacity="0.846636178174969" transform="matrix(0.8474218748631722,-0.5309201126378488,0.5309201126378488,0.8474218748631722,470.8098109125689,357.75474778441617)" fill="none" stroke="#5a6ab9"></use><use xlink:href="#bbburst-shape-1" width="56.3616523529401" opacity="0.05554499408268565" transform="matrix(0.9980189183488,-0.06291453423408035,0.06291453423408035,0.9980189183488,24.709599923611158,-206.2177860226264)" fill="#5a6ab9" filter="url(#bbburst-blur-3)"></use><use xlink:href="#bbburst-shape-5" width="24.6945011947977" opacity="0.7464878939742242" transform="matrix(0.9983835038668408,0.05683642499814633,-0.05683642499814633,0.9983835038668408,570.3365920067041,318.49268308855574)" fill="#5a6ab9"></use><use xlink:href="#bbburst-shape-5" width="21.31003690199855" opacity="0.7132453403772282" transform="matrix(0.7745803261371788,-0.6324755476389754,0.6324755476389754,0.7745803261371788,516.6413146662601,211.00632915977218)" fill="#5a6ab9"></use><use xlink:href="#bbburst-shape-5" width="47.28967276105717" opacity="0.5126173255164734" transform="matrix(0.7573589507482884,-0.6529987899846765,0.6529987899846765,0.7573589507482884,121.52865480450447,233.12197761751554)" fill="#5a6ab9" filter="url(#bbburst-blur-1)"></use><use xlink:href="#bbburst-shape-10" width="22.266022877119383" opacity="0.8008286554620146" transform="matrix(0.9838164121463148,0.17917942736696252,-0.17917942736696252,0.9838164121463148,704.1029622033552,281.4312385917118)" fill="none" stroke="#5a6ab9"></use><use xlink:href="#bbburst-shape-1" width="14.40303331134834" opacity="0.952109311390541" transform="matrix(0.7648930290201346,0.6441573209677924,-0.6441573209677924,0.7648930290201346,1035.0127823726957,444.6957367275558)" fill="#5a6ab9"></use><use xlink:href="#bbburst-shape-10" width="11.087770632897852" opacity="0.8577597615617774" transform="matrix(0.8036526626769028,-0.5950986454129469,0.5950986454129469,0.8036526626769028,530.5462553201252,342.17598150232783)" fill="none" stroke="#5a6ab9"></use><use xlink:href="#bbburst-shape-11" width="12.114435570504995" opacity="0.8856883673262583" transform="matrix(0.9954407577277681,0.095381852856646,-0.095381852856646,0.9954407577277681,756.9868481508104,314.9543225517954)" fill="none" stroke="#5a6ab9"></use><use xlink:href="#bbburst-shape-11" width="50.01307569041506" opacity="0.14696652666310805" transform="matrix(0.9380473624576718,-0.34650706455454144,0.34650706455454144,0.9380473624576718,218.1253808327328,-309.8626691009887)" fill="none" stroke="#5a6ab9" filter="url(#bbburst-blur-3)"></use><use xlink:href="#bbburst-shape-11" width="18.68046701432386" opacity="0.8494234858468606" transform="matrix(0.7906652839889085,0.6122486494021354,-0.6122486494021354,0.7906652839889085,965.7977035941524,345.5040668708273)" fill="none" stroke="#5a6ab9"></use><use xlink:href="#bbburst-shape-5" width="38.557578554228655" opacity="0.24291491767884243" transform="matrix(0.8288969296424705,-0.5594013586230242,0.5594013586230242,0.8288969296424705,-193.36375788901057,406.90650109097584)" fill="#5a6ab9" filter="url(#bbburst-blur-3)"></use><use xlink:href="#bbburst-shape-11" width="47.80070201862656" opacity="0.3823207576119293" transform="matrix(0.8165655998973725,-0.5772526492483547,0.5772526492483547,0.8165655998973725,-36.481639215508096,290.52230098705184)" fill="none" stroke="#5a6ab9" filter="url(#bbburst-blur-2)"></use><use xlink:href="#bbburst-shape-10" width="55.09714119380752" opacity="0.004530437396003673" transform="matrix(0.8207553937508022,0.5712797770173259,-0.5712797770173259,0.8207553937508022,339.83725342749244,-283.84978112700486)" fill="none" stroke="#5a6ab9" filter="url(#bbburst-blur-3)"></use><use xlink:href="#bbburst-shape-10" width="26.81082109630821" opacity="0.6513490608096977" transform="matrix(0.8842215381636743,-0.467067737536501,0.467067737536501,0.8842215381636743,367.5989482769556,193.86010132160828)" fill="none" stroke="#5a6ab9"></use><use xlink:href="#bbburst-shape-5" width="20.15024265922611" opacity="0.6186389672441386" transform="matrix(0.8837493056169113,0.46796064452219377,-0.46796064452219377,0.8837493056169113,764.2147411873018,126.1716150180402)" fill="#5a6ab9" filter="url(#bbburst-blur-1)"></use><use xlink:href="#bbburst-shape-1" width="28.917909672824216" opacity="0.5348253784027603" transform="matrix(0.9055194168439324,0.4243048264144829,-0.4243048264144829,0.9055194168439324,494.0952019225773,382.04745526471163)" fill="#5a6ab9" filter="url(#bbburst-blur-1)"></use><use xlink:href="#bbburst-shape-11" width="12.142712440726651" opacity="0.9231806050831071" transform="matrix(0.9733170742403346,-0.22946431747057075,0.22946431747057075,0.9733170742403346,649.9091981596357,355.70309047984136)" fill="none" stroke="#5a6ab9"></use><use xlink:href="#bbburst-shape-5" width="56.58592688184069" opacity="0.29526802149058784" transform="matrix(0.8562783915349065,-0.5165145846831369,0.5165145846831369,0.8562783915349065,239.851437944609,-150.95307078374626)" fill="#5a6ab9" filter="url(#bbburst-blur-2)"></use><use xlink:href="#bbburst-shape-13" width="17.048859815300222" opacity="0.765287176006129" transform="matrix(0.8870055740303725,-0.46175871582358824,0.46175871582358824,0.8870055740303725,482.75027196941596,250.46632245424337)" fill="none" stroke="#5a6ab9"></use><use xlink:href="#bbburst-shape-1" width="28.65839661539528" opacity="0.603788318072304" transform="matrix(0.9990800234967555,-0.042884806746942054,0.042884806746942054,0.9990800234967555,737.496400996118,6.0250707597669475)" fill="#5a6ab9" filter="url(#bbburst-blur-1)"></use><use xlink:href="#bbburst-shape-13" width="34.19104561861152" opacity="0.5308546869475033" transform="matrix(0.9210134221930807,0.3895308410642091,-0.3895308410642091,0.9210134221930807,893.6175372065883,-41.90478901193757)" fill="none" stroke="#5a6ab9" filter="url(#bbburst-blur-1)"></use><use xlink:href="#bbburst-shape-1" width="38.908382621399014" opacity="0.4381232001899814" transform="matrix(0.8909256779722698,0.45414913445877164,-0.45414913445877164,0.8909256779722698,467.1301881203502,173.0701254105328)" fill="#5a6ab9" filter="url(#bbburst-blur-2)"></use><use xlink:href="#bbburst-shape-3" width="29.97133343386927" opacity="0.7049191264066547" transform="matrix(0.828595811962292,-0.5598472831036604,0.5598472831036604,0.828595811962292,404.3687208674276,228.55153579955606)" fill="#5a6ab9"></use><use xlink:href="#bbburst-shape-5" width="33.66118389634464" opacity="0.5473105624181478" transform="matrix(0.7962849059547402,-0.6049217706023239,0.6049217706023239,0.7962849059547402,124.30840946990577,323.5659580101648)" fill="#5a6ab9" filter="url(#bbburst-blur-1)"></use><use xlink:href="#bbburst-shape-10" width="30.94551088165109" opacity="0.6812071909156476" transform="matrix(0.712889047776952,0.7012768394576215,-0.7012768394576215,0.712889047776952,955.822056219966,206.15037188480522)" fill="none" stroke="#5a6ab9"></use><use xlink:href="#bbburst-shape-5" width="12.61728105430452" opacity="0.8168736248932256" transform="matrix(0.9617585275318976,0.27389876728396584,-0.27389876728396584,0.9617585275318976,721.4632272346199,393.54984220504605)" fill="#5a6ab9"></use><use xlink:href="#bbburst-shape-10" width="31.607777357612616" opacity="0.3359713171164771" transform="matrix(0.974056916277509,0.22630316801129813,-0.22630316801129813,0.974056916277509,811.5123070780168,-254.1736646158713)" fill="none" stroke="#5a6ab9" filter="url(#bbburst-blur-2)"></use><use xlink:href="#bbburst-shape-5" width="19.194132977360944" opacity="0.7553163326484245" transform="matrix(0.7897068437928594,0.6134843933359027,-0.6134843933359027,0.7897068437928594,949.1599301329744,250.17174256455155)" fill="#5a6ab9"></use><use xlink:href="#bbburst-shape-3" width="68.75078490767" opacity="0.17955410704155272" transform="matrix(0.979105283083608,-0.20335398849731942,0.20335398849731942,0.979105283083608,170.84766803103932,-224.16204447579085)" fill="#5a6ab9" filter="url(#bbburst-blur-3)"></use><use xlink:href="#bbburst-shape-10" width="12.763942471571688" opacity="0.9223792472041557" transform="matrix(0.9947139506842664,0.1026847423627236,-0.1026847423627236,0.9947139506842664,816.787642602874,325.9394818560963)" fill="none" stroke="#5a6ab9"></use><use xlink:href="#bbburst-shape-1" width="16.655514283839445" opacity="0.8719562575635622" transform="matrix(0.8180383193934242,0.5751637227815939,-0.5751637227815939,0.8180383193934242,896.5681641377483,449.3238374824757)" fill="#5a6ab9"></use><use xlink:href="#bbburst-shape-5" width="12.868113812066035" opacity="0.889458276851636" transform="matrix(0.9839720472474371,-0.17832276981834755,0.17832276981834755,0.9839720472474371,708.7437746127298,297.8561211457452)" fill="#5a6ab9"></use><use xlink:href="#bbburst-shape-3" width="19.702040087476664" opacity="0.7739753385209664" transform="matrix(0.9985449237302652,0.05392620228162734,-0.05392620228162734,0.9985449237302652,587.2408362926067,373.14381702873885)" fill="#5a6ab9"></use><use xlink:href="#bbburst-shape-1" width="55.22911977732727" opacity="0.40641780325475463" transform="matrix(0.9818278841406298,-0.18977356487122748,0.18977356487122748,0.9818278841406298,253.8446818772945,17.66044128738457)" fill="#5a6ab9" filter="url(#bbburst-blur-2)"></use><use xlink:href="#bbburst-shape-5" width="20.48252245015994" opacity="0.6838545613991558" transform="matrix(0.9996313447327535,-0.02715095997910253,0.02715095997910253,0.9996313447327535,478.75528404405304,301.1289667574729)" fill="#5a6ab9"></use><use xlink:href="#bbburst-shape-5" width="17.347108465160844" opacity="0.761584478876452" transform="matrix(0.9358004428084196,-0.3525301848630353,0.3525301848630353,0.9358004428084196,629.8585895735606,191.24976452337773)" fill="#5a6ab9"></use><use xlink:href="#bbburst-shape-5" width="22.572038559815333" opacity="0.7253654966317113" transform="matrix(0.9966692722287512,0.08154975042887219,-0.08154975042887219,0.9966692722287512,756.3646360005048,133.58195496676063)" fill="#5a6ab9"></use><use xlink:href="#bbburst-shape-5" width="13.987671507681124" opacity="0.8271753182040121" transform="matrix(0.897119950530157,-0.4417870463931335,0.4417870463931335,0.897119950530157,597.2474652619654,272.5508672860529)" fill="#5a6ab9"></use><use xlink:href="#bbburst-shape-10" width="13.981559825368997" opacity="0.793266318814601" transform="matrix(0.8164765384812895,0.5773786124456043,-0.5773786124456043,0.8164765384812895,989.7940328421633,265.70140903286483)" fill="none" stroke="#5a6ab9"></use><use xlink:href="#bbburst-shape-11" width="42.12808923717054" opacity="0.27597809594340394" transform="matrix(0.8240776549722912,0.5664768473427394,-0.5664768473427394,0.8240776549722912,354.5919089957672,149.36183081785254)" fill="none" stroke="#5a6ab9" filter="url(#bbburst-blur-2)"></use><use xlink:href="#bbburst-shape-1" width="18.401265396345632" opacity="0.7560691439372366" transform="matrix(0.8406402731700404,0.5415938802503217,-0.5415938802503217,0.8406402731700404,803.4794549956587,327.2184665238962)" fill="#5a6ab9"></use><use xlink:href="#bbburst-shape-10" width="49.583388901937425" opacity="0.3277467287410806" transform="matrix(0.7594185964091098,-0.6506023327871009,0.6506023327871009,0.7594185964091098,-39.57631917800333,141.20830415915935)" fill="none" stroke="#5a6ab9" filter="url(#bbburst-blur-2)"></use><use xlink:href="#bbburst-shape-10" width="32.75407048633501" opacity="0.6127910107557781" transform="matrix(0.7293442682384611,-0.6841468690184175,0.6841468690184175,0.7293442682384611,176.7227509795424,329.9749858084393)" fill="none" stroke="#5a6ab9" filter="url(#bbburst-blur-1)"></use><use xlink:href="#bbburst-shape-10" width="38.56557061319416" opacity="0.4346986152925233" transform="matrix(0.8104144932564482,0.5858569357103269,-0.5858569357103269,0.8104144932564482,968.3175390650679,-98.51308527289322)" fill="none" stroke="#5a6ab9" filter="url(#bbburst-blur-2)"></use><use xlink:href="#bbburst-shape-10" width="37.80644703106282" opacity="0.35434329333687364" transform="matrix(0.980012087162225,-0.19893795267856648,0.19893795267856648,0.980012087162225,58.36108958949177,359.49692191720266)" fill="none" stroke="#5a6ab9" filter="url(#bbburst-blur-2)"></use><use xlink:href="#bbburst-shape-5" width="28.315296662949425" opacity="0.6103396402393904" transform="matrix(0.9325289761926924,0.36109515167197836,-0.36109515167197836,0.9325289761926924,769.4808427916187,67.375685450873)" fill="#5a6ab9" filter="url(#bbburst-blur-1)"></use><use xlink:href="#bbburst-shape-10" width="10.46521938700097" opacity="0.9046487310132643" transform="matrix(0.9181483377105696,0.3962368356921373,-0.3962368356921373,0.9181483377105696,859.9427687942277,413.2534665556299)" fill="none" stroke="#5a6ab9"></use><use xlink:href="#bbburst-shape-5" width="40.013691778105056" opacity="0.2421435608782837" transform="matrix(0.9622975092374365,-0.2719990877106497,0.2719990877106497,0.9622975092374365,588.9487533010426,-332.77494892778026)" fill="#5a6ab9" filter="url(#bbburst-blur-3)"></use><use xlink:href="#bbburst-shape-10" width="26.56222208768672" opacity="0.7237759725319071" transform="matrix(0.9985034688844259,-0.054688413999387155,0.054688413999387155,0.9985034688844259,490.3523338140782,370.61027714567285)" fill="none" stroke="#5a6ab9"></use><use xlink:href="#bbburst-shape-10" width="39.53717876111091" opacity="0.4732622224691925" transform="matrix(0.9993764583015458,0.03530856259689373,-0.03530856259689373,0.9993764583015458,658.9787662750524,-109.48951365424591)" fill="none" stroke="#5a6ab9" filter="url(#bbburst-blur-1)"></use><use xlink:href="#bbburst-shape-11" width="13.566582488854763" opacity="0.8430333807416888" transform="matrix(0.7181853559796323,0.6958518480656705,-0.6958518480656705,0.7181853559796323,921.3959495193005,469.4708766519386)" fill="none" stroke="#5a6ab9"></use><use xlink:href="#bbburst-shape-5" width="32.19842813951343" opacity="0.4799917790677565" transform="matrix(0.7657436894850987,0.6431458637150275,-0.6431458637150275,0.7657436894850987,544.624755307231,341.5642558051382)" fill="#5a6ab9" filter="url(#bbburst-blur-1)"></use><use xlink:href="#bbburst-shape-1" width="58.902926216793546" opacity="0.22847578028916993" transform="matrix(0.9998750314607601,0.015808904495383403,-0.015808904495383403,0.9998750314607601,540.2430589368234,-334.6796588840522)" fill="#5a6ab9" filter="url(#bbburst-blur-3)"></use><use xlink:href="#bbburst-shape-3" width="28.756985296102965" opacity="0.7341648112252183" transform="matrix(0.8291367689982362,-0.5590458105514837,0.5590458105514837,0.8291367689982362,376.83506796650016,288.03205237784977)" fill="#5a6ab9"></use><use xlink:href="#bbburst-shape-11" width="32.60819127109268" opacity="0.6179787397054162" transform="matrix(0.8246479919260165,-0.5656462581971075,0.5656462581971075,0.8246479919260165,193.80575562827755,370.3932428296352)" fill="none" stroke="#5a6ab9" filter="url(#bbburst-blur-1)"></use><use xlink:href="#bbburst-shape-5" width="39.75144495887176" opacity="0.430272704628493" transform="matrix(0.9449580901222301,0.3271913933962006,-0.3271913933962006,0.9449580901222301,650.8276570979724,-90.77549116873962)" fill="#5a6ab9" filter="url(#bbburst-blur-2)"></use><use xlink:href="#bbburst-shape-10" width="29.30720478597116" opacity="0.5401228860839147" transform="matrix(0.8180345438237548,-0.575169092624996,0.575169092624996,0.8180345438237548,402.1194456764266,48.54221407205512)" fill="none" stroke="#5a6ab9" filter="url(#bbburst-blur-1)"></use><use xlink:href="#bbburst-shape-10" width="27.336222206857887" opacity="0.5865326532275479" transform="matrix(0.8112868522481362,0.5846483074202052,-0.5846483074202052,0.8112868522481362,714.1337092259175,192.36054840249858)" fill="none" stroke="#5a6ab9" filter="url(#bbburst-blur-1)"></use><use xlink:href="#bbburst-shape-1" width="44.20297812382065" opacity="0.3644706475785783" transform="matrix(0.9215276885562554,-0.3883126565335786,0.3883126565335786,0.9215276885562554,444.0529388976382,-169.40042390188148)" fill="#5a6ab9" filter="url(#bbburst-blur-2)"></use><use xlink:href="#bbburst-shape-1" width="19.027303919281664" opacity="0.6663478190816522" transform="matrix(0.9680557910070597,-0.2507348908662214,0.2507348908662214,0.9680557910070597,651.1973245083936,83.85784213836428)" fill="#5a6ab9"></use><use xlink:href="#bbburst-shape-10" width="39.4134420674694" opacity="0.5272475715424252" transform="matrix(0.8289961858253063,0.559254256923534,-0.559254256923534,0.8289961858253063,762.7891617863766,52.80962117117531)" fill="none" stroke="#5a6ab9" filter="url(#bbburst-blur-1)"></use><use xlink:href="#bbburst-shape-5" width="10.89982320481602" opacity="0.9297204460986414" transform="matrix(0.9854842724881476,-0.16976674785866183,0.16976674785866183,0.9854842724881476,660.1099190807281,384.326618811017)" fill="#5a6ab9"></use><use xlink:href="#bbburst-shape-10" width="25.380051647089047" opacity="0.7987229730376966" transform="matrix(0.9063784959530262,-0.42246659284957666,0.42246659284957666,0.9063784959530262,432.66501369422724,367.97074514326795)" fill="none" stroke="#5a6ab9"></use><use xlink:href="#bbburst-shape-1" width="26.40597153848836" opacity="0.6995230995945811" transform="matrix(0.969835737815701,0.243759392958456,-0.243759392958456,0.969835737815701,620.8380094982665,265.116280380138)" fill="#5a6ab9"></use><use xlink:href="#bbburst-shape-5" width="14.37232574277979" opacity="0.8867155154848797" transform="matrix(0.8837299267772933,-0.4679972398617323,0.4679972398617323,0.8837299267772933,508.174160491364,393.52275232777635)" fill="#5a6ab9"></use><use xlink:href="#bbburst-shape-10" width="72.13562921927125" opacity="0.15064183768519868" transform="matrix(0.71598295982965,-0.6981177559936244,0.6981177559936244,0.71598295982965,-231.84688144251126,99.234161937441)" fill="none" stroke="#5a6ab9" filter="url(#bbburst-blur-3)"></use><use xlink:href="#bbburst-shape-11" width="45.54045524117225" opacity="0.44586923054035277" transform="matrix(0.967380486612655,0.25332783921445134,-0.25332783921445134,0.967380486612655,328.3191832187977,349.1516735220609)" fill="none" stroke="#5a6ab9" filter="url(#bbburst-blur-2)"></use><use xlink:href="#bbburst-shape-5" width="19.709075277399787" opacity="0.8015228088644996" transform="matrix(0.9784403821583914,-0.2065294617282028,0.2065294617282028,0.9784403821583914,583.2972058790615,256.044567773508)" fill="#5a6ab9"></use><use xlink:href="#bbburst-shape-1" width="46.89694622552443" opacity="0.20145405863006483" transform="matrix(0.9336504075139215,0.35818558953297985,-0.35818558953297985,0.9336504075139215,166.13028374031546,158.7675467974035)" fill="#5a6ab9" filter="url(#bbburst-blur-3)"></use><use xlink:href="#bbburst-shape-1" width="34.39676378081395" opacity="0.5011821007402265" transform="matrix(0.9923212708777084,0.1236870864870285,-0.1236870864870285,0.9923212708777084,504.34084849125503,25.22968004838839)" fill="#5a6ab9" filter="url(#bbburst-blur-1)"></use><use xlink:href="#bbburst-shape-1" width="19.916396119080503" opacity="0.8434005284190698" transform="matrix(0.9990374582780606,-0.043865213521791624,0.043865213521791624,0.9990374582780606,635.5567759300125,324.8988923899806)" fill="#5a6ab9"></use><use xlink:href="#bbburst-shape-10" width="41.758747187977534" opacity="0.29681612862967977" transform="matrix(0.9415242810357516,0.33694514126206226,-0.33694514126206226,0.9415242810357516,230.41978573071103,256.18738747344105)" fill="none" stroke="#5a6ab9" filter="url(#bbburst-blur-2)"></use><use xlink:href="#bbburst-shape-3" width="49.20072333376531" opacity="0.35199630124137493" transform="matrix(0.9998100009463868,0.019492614180401355,-0.019492614180401355,0.9998100009463868,381.13149100152754,-108.73733832912905)" fill="#5a6ab9" filter="url(#bbburst-blur-2)"></use></svg>