<svg xmlns="http://www.w3.org/2000/svg" version="1.1" xmlns:xlink="http://www.w3.org/1999/xlink" xmlns:svgjs="http://svgjs.dev/svgjs" viewBox="0 0 800 800" opacity="1"><defs><filter id="bbburst-blur-1" x="-100%" y="-100%" width="400%" height="400%"><feGaussianBlur in="SourceGraphic" stdDeviation="1"></feGaussianBlur></filter><filter id="bbburst-blur-2" x="-100%" y="-100%" width="400%" height="400%"><feGaussianBlur in="SourceGraphic" stdDeviation="2"></feGaussianBlur></filter><filter id="bbburst-blur-3" x="-100%" y="-100%" width="400%" height="400%"><feGaussianBlur in="SourceGraphic" stdDeviation="4"></feGaussianBlur></filter><filter id="bbburst-blur-4" x="-100%" y="-100%" width="400%" height="400%"><feGaussianBlur in="SourceGraphic" stdDeviation="12"></feGaussianBlur></filter><symbol id="bbburst-shape-1" viewBox="0 0 194 167"><path d="m97 0 96.129 166.5H.871L97 0Z"></path></symbol><symbol id="bbburst-shape-3" viewBox="0 0 131 127"><path d="m66 0 66 63.5L66 127 0 63.5 66 0Z"></path></symbol><symbol id="bbburst-shape-5" viewBox="0 0 145 145"><circle cx="72.5" cy="72.5" r="72.5"></circle></symbol><symbol id="bbburst-shape-10" viewBox="0 0 145 145"><circle cx="72.5" cy="72.5" r="61.5" fill="none" stroke-width="22"></circle></symbol><symbol id="bbburst-shape-11" viewBox="0 0 194 167"><path d="M10.398 161 97 11l86.603 150H10.397Z" stroke-width="11"></path></symbol><symbol id="bbburst-shape-13" viewBox="0 0 159 159"><path stroke-width="22" d="M11 11h137v137H11z"></path></symbol></defs><use xlink:href="#bbburst-shape-11" width="25.018131750291243" opacity="0.5677455594893475" transform="matrix(0.9835620255559255,0.1805706008306026,-0.1805706008306026,0.9835620255559255,823.7446134797576,-26.73339196032481)" fill="none" stroke="#2f42a3" filter="url(#bbburst-blur-1)"></use><use xlink:href="#bbburst-shape-13" width="41.05976130719499" opacity="0.3550532550670795" transform="matrix(0.7836828515025618,-0.6211611612623681,0.6211611612623681,0.7836828515025618,360.72302859722026,-121.54923178096865)" fill="none" stroke="#2f42a3" filter="url(#bbburst-blur-2)"></use><use xlink:href="#bbburst-shape-1" width="60.33778150660327" opacity="0.41428541486982806" transform="matrix(0.9238470421991808,-0.38276186150114944,0.38276186150114944,0.9238470421991808,68.64851869774012,241.7910890670829)" fill="#2f42a3" filter="url(#bbburst-blur-2)"></use><use xlink:href="#bbburst-shape-11" width="40.19566636892382" opacity="0.47148449853634433" transform="matrix(0.9377614537350405,-0.3472800827700079,0.3472800827700079,0.9377614537350405,116.9435854515867,371.55426021774355)" fill="none" stroke="#2f42a3" filter="url(#bbburst-blur-1)"></use><use xlink:href="#bbburst-shape-13" width="26.324692175363253" opacity="0.7183486088109042" transform="matrix(0.9573514917078051,0.2889258059170909,-0.2889258059170909,0.9573514917078051,709.7107986525881,208.36956241342966)" fill="none" stroke="#2f42a3"></use><use xlink:href="#bbburst-shape-10" width="30.28464688338583" opacity="0.6721857806004006" transform="matrix(0.8585292258918865,-0.5127646324479469,0.5127646324479469,0.8585292258918865,255.759059055716,431.2145016698663)" fill="none" stroke="#2f42a3"></use><use xlink:href="#bbburst-shape-11" width="77.19608819519658" opacity="-0.003714691997994901" transform="matrix(0.7131860335125331,-0.700974808108437,0.700974808108437,0.7131860335125331,-239.8953697533632,-146.4390832387209)" fill="none" stroke="#2f42a3" filter="url(#bbburst-blur-3)"></use><use xlink:href="#bbburst-shape-3" width="35.771441991977525" opacity="0.5658141895960658" transform="matrix(0.8065274585271559,-0.5911966328064858,0.5911966328064858,0.8065274585271559,265.211773559941,159.42606125372498)" fill="#2f42a3" filter="url(#bbburst-blur-1)"></use><use xlink:href="#bbburst-shape-3" width="45.71251904356326" opacity="0.4718183525405799" transform="matrix(0.7461845053589302,0.6657392011608214,-0.6657392011608214,0.7461845053589302,984.2277664009258,-37.987611017310144)" fill="#2f42a3" filter="url(#bbburst-blur-1)"></use><use xlink:href="#bbburst-shape-10" width="58.27090243767492" opacity="0.1644463847188471" transform="matrix(0.9992618685236017,0.03841507665904549,-0.03841507665904549,0.9992618685236017,53.03934990532268,-1.5095740087136278)" fill="none" stroke="#2f42a3" filter="url(#bbburst-blur-3)"></use><use xlink:href="#bbburst-shape-13" width="40.23162658092233" opacity="0.36527364921414596" transform="matrix(0.9415913444614511,-0.33675768741823386,0.33675768741823386,0.9415913444614511,594.010730271327,-202.42661536509198)" fill="none" stroke="#2f42a3" filter="url(#bbburst-blur-2)"></use><use xlink:href="#bbburst-shape-13" width="12.318820565979271" opacity="0.9451700512632927" transform="matrix(0.896668300916526,-0.4427030134655402,0.4427030134655402,0.896668300916526,585.2176336748948,399.6648270659837)" fill="none" stroke="#2f42a3"></use><use xlink:href="#bbburst-shape-1" width="14.990498508272061" opacity="0.9333314081072029" transform="matrix(0.9938498052441345,0.1107364647087673,-0.1107364647087673,0.9938498052441345,774.2598002821385,378.6708577378006)" fill="#2f42a3"></use><use xlink:href="#bbburst-shape-10" width="17.843922493559543" opacity="0.8671838371611742" transform="matrix(0.8078033378352134,-0.5894520908286679,0.5894520908286679,0.8078033378352134,447.5764371774873,406.8782314392338)" fill="none" stroke="#2f42a3"></use><use xlink:href="#bbburst-shape-13" width="49.02529999413833" opacity="0.5371401700372302" transform="matrix(0.9917307934882089,-0.1283356273497249,0.1283356273497249,0.9917307934882089,283.7615309468797,264.62292509828677)" fill="none" stroke="#2f42a3" filter="url(#bbburst-blur-1)"></use><use xlink:href="#bbburst-shape-10" width="52.98069183743038" opacity="0.07652207045508597" transform="matrix(0.7436915575976654,-0.6685228995015491,0.6685228995015491,0.7436915575976654,-64.53170018089821,-200.4581491254812)" fill="none" stroke="#2f42a3" filter="url(#bbburst-blur-3)"></use><use xlink:href="#bbburst-shape-5" width="59.49749667284272" opacity="0.3373993017119219" transform="matrix(0.9705186988856145,-0.24102583909899342,0.24102583909899342,0.9705186988856145,111.88239451983225,69.31172936660909)" fill="#2f42a3" filter="url(#bbburst-blur-2)"></use><use xlink:href="#bbburst-shape-11" width="50.361108631759905" opacity="0.4459437318242826" transform="matrix(0.8296523813883252,-0.558280329276145,0.558280329276145,0.8296523813883252,231.95693668045712,31.83553142081564)" fill="none" stroke="#2f42a3" filter="url(#bbburst-blur-2)"></use><use xlink:href="#bbburst-shape-5" width="37.53087369550523" opacity="0.6289639160195788" transform="matrix(0.9704427301256494,-0.2413315303607798,0.2413315303607798,0.9704427301256494,359.20876732633246,239.26240414047157)" fill="#2f42a3" filter="url(#bbburst-blur-1)"></use><use xlink:href="#bbburst-shape-10" width="71.51202047851928" opacity="0.256136988756296" transform="matrix(0.9286323461444744,-0.3710013014723924,0.3710013014723924,0.9286323461444744,-83.56516173018319,195.67501495169523)" fill="none" stroke="#2f42a3" filter="url(#bbburst-blur-2)"></use><use xlink:href="#bbburst-shape-11" width="30.72248832273106" opacity="0.7226467133263815" transform="matrix(0.7869743161434309,-0.6169857581262141,0.6169857581262141,0.7869743161434309,309.1985893763167,341.89017499496487)" fill="none" stroke="#2f42a3"></use><use xlink:href="#bbburst-shape-13" width="27.53350242289627" opacity="0.6250490630465586" transform="matrix(0.8625422593201625,0.5059850302991874,-0.5059850302991874,0.8625422593201625,704.4194208653813,205.6645087116051)" fill="none" stroke="#2f42a3" filter="url(#bbburst-blur-1)"></use><use xlink:href="#bbburst-shape-1" width="15.80140354270407" opacity="0.7609288938111112" transform="matrix(0.9987151362982783,-0.05067619291848334,0.05067619291848334,0.9987151362982783,743.7605093508769,163.51827561634855)" fill="#2f42a3"></use><use xlink:href="#bbburst-shape-5" width="51.56271309522014" opacity="0.46990601061113757" transform="matrix(0.959033333263745,0.28329325034146263,-0.28329325034146263,0.959033333263745,487.3513089128023,62.66496493368953)" fill="#2f42a3" filter="url(#bbburst-blur-1)"></use><use xlink:href="#bbburst-shape-10" width="53.11255077727378" opacity="0.35777863328575554" transform="matrix(0.7698640859404458,0.6382078730155888,-0.6382078730155888,0.7698640859404458,396.95857283441626,400.5567825041467)" fill="none" stroke="#2f42a3" filter="url(#bbburst-blur-2)"></use><use xlink:href="#bbburst-shape-1" width="26.479397507815257" opacity="0.7467597686705674" transform="matrix(0.9627042524507315,0.2705559504303651,-0.2705559504303651,0.9627042524507315,643.9954591577595,381.49329923431526)" fill="#2f42a3"></use><use xlink:href="#bbburst-shape-1" width="11.52302251560717" opacity="0.9748882964097675" transform="matrix(0.7589164124714549,-0.6511880518571087,0.6511880518571087,0.7589164124714549,514.6431133274496,485.7198128879319)" fill="#2f42a3"></use><use xlink:href="#bbburst-shape-11" width="13.496144382660233" opacity="0.9133404473713297" transform="matrix(0.8802580192670753,-0.47449533139537353,0.47449533139537353,0.8802580192670753,583.2077139664909,366.86189913263524)" fill="none" stroke="#2f42a3"></use><use xlink:href="#bbburst-shape-1" width="23.226450864404267" opacity="0.7930426377013178" transform="matrix(0.8021137946426636,0.597171215351131,-0.597171215351131,0.8021137946426636,879.2479877072641,329.9584170216272)" fill="#2f42a3"></use><use xlink:href="#bbburst-shape-13" width="7.08208898834806" opacity="0.9455114230910658" transform="matrix(0.8301114095846289,0.5575975678546494,-0.5575975678546494,0.8301114095846289,1010.9837399062395,412.2603224122539)" fill="none" stroke="#2f42a3"></use><use xlink:href="#bbburst-shape-5" width="41.497653393819114" opacity="0.6425234211754005" transform="matrix(0.9326541165650295,0.3607718099495919,-0.3607718099495919,0.9326541165650295,795.7391413840828,86.14782902197055)" fill="#2f42a3" filter="url(#bbburst-blur-1)"></use><use xlink:href="#bbburst-shape-5" width="28.35061867224144" opacity="0.6308050442069069" transform="matrix(0.9893586776197529,0.14549710312749783,-0.14549710312749783,0.9893586776197529,490.1575545162122,297.4228650374899)" fill="#2f42a3" filter="url(#bbburst-blur-1)"></use><use xlink:href="#bbburst-shape-1" width="47.756494313407" opacity="0.232694575472976" transform="matrix(0.9731238072261327,-0.2302825564599205,0.2302825564599205,0.9731238072261327,199.6114598287259,-178.23356507314102)" fill="#2f42a3" filter="url(#bbburst-blur-3)"></use><use xlink:href="#bbburst-shape-13" width="24.245983695162966" opacity="0.7214771799198356" transform="matrix(0.7523504773603947,-0.6587630524062398,0.6587630524062398,0.7523504773603947,425.9929810343689,247.6296237591194)" fill="none" stroke="#2f42a3"></use><use xlink:href="#bbburst-shape-1" width="12.444742173117255" opacity="0.8792632575792387" transform="matrix(0.9907423071226372,0.13575596074321727,-0.13575596074321727,0.9907423071226372,819.7521456000374,285.5211586614672)" fill="#2f42a3"></use><use xlink:href="#bbburst-shape-1" width="40.37845238860472" opacity="0.5776926123046141" transform="matrix(0.9828536671134733,0.18438728004284285,-0.18438728004284285,0.9828536671134733,433.63871049033133,361.68910854920836)" fill="#2f42a3" filter="url(#bbburst-blur-1)"></use><use xlink:href="#bbburst-shape-11" width="54.50125770143357" opacity="0.45550762934919475" transform="matrix(0.9315083363788144,0.36371997368411535,-0.36371997368411535,0.9315083363788144,720.3290066597735,-89.58781626437354)" fill="none" stroke="#2f42a3" filter="url(#bbburst-blur-1)"></use><use xlink:href="#bbburst-shape-13" width="19.856745746259573" opacity="0.7971426949208443" transform="matrix(0.8697078052986585,-0.49356694926077727,0.49356694926077727,0.8697078052986585,547.1821322958806,259.621819357771)" fill="none" stroke="#2f42a3"></use><use xlink:href="#bbburst-shape-13" width="22.383411874492996" opacity="0.7750345449514434" transform="matrix(0.7646384730590988,0.6444594677075121,-0.6444594677075121,0.7646384730590988,840.3363765194655,403.41848617358494)" fill="none" stroke="#2f42a3"></use><use xlink:href="#bbburst-shape-10" width="53.392579316577454" opacity="0.16782852632675183" transform="matrix(0.8645854164565453,0.5024858780609283,-0.5024858780609283,0.8645854164565453,575.7244139666661,-287.7770529433113)" fill="none" stroke="#2f42a3" filter="url(#bbburst-blur-3)"></use><use xlink:href="#bbburst-shape-11" width="36.01489099723805" opacity="0.5537443895221648" transform="matrix(0.8797722455100231,0.47539541019056086,-0.47539541019056086,0.8797722455100231,762.5261251763792,46.44448389042839)" fill="none" stroke="#2f42a3" filter="url(#bbburst-blur-1)"></use><use xlink:href="#bbburst-shape-1" width="41.8620606775605" opacity="0.5552893601778489" transform="matrix(0.9933247322840026,0.11535153329242964,-0.11535153329242964,0.9933247322840026,703.8123871097084,-27.473212384638316)" fill="#2f42a3" filter="url(#bbburst-blur-1)"></use><use xlink:href="#bbburst-shape-1" width="44.450858030221454" opacity="0.33891049308374677" transform="matrix(0.7960944795438426,0.6051723553169117,-0.6051723553169117,0.7960944795438426,551.8055966664897,5.826673455685238)" fill="#2f42a3" filter="url(#bbburst-blur-2)"></use><use xlink:href="#bbburst-shape-11" width="51.0324936610625" opacity="0.22818870385961554" transform="matrix(0.9869930968731576,0.16076264094849166,-0.16076264094849166,0.9869930968731576,593.3341104152281,-331.1422779654274)" fill="none" stroke="#2f42a3" filter="url(#bbburst-blur-3)"></use><use xlink:href="#bbburst-shape-1" width="36.168833326125906" opacity="0.6612867856559395" transform="matrix(0.7556401521106245,-0.6549869926328554,0.6549869926328554,0.7556401521106245,333.34592902209266,229.916706179325)" fill="#2f42a3"></use><use xlink:href="#bbburst-shape-13" width="16.688572605036534" opacity="0.8593063590263792" transform="matrix(0.9822767571903414,-0.18743631527435425,0.18743631527435425,0.9822767571903414,633.9593247223903,294.95502957246345)" fill="none" stroke="#2f42a3"></use><use xlink:href="#bbburst-shape-10" width="26.058676089346406" opacity="0.6440729569659775" transform="matrix(0.7355990666065905,0.6774171633546886,-0.6774171633546886,0.7355990666065905,1015.430404042785,143.985819049116)" fill="none" stroke="#2f42a3" filter="url(#bbburst-blur-1)"></use><use xlink:href="#bbburst-shape-1" width="18.12933100422753" opacity="0.9057600788370936" transform="matrix(0.8061177137568607,-0.591755212539283,0.591755212539283,0.8061177137568607,493.7368943966669,412.1975683410801)" fill="#2f42a3"></use><use xlink:href="#bbburst-shape-11" width="71.35260640800988" opacity="0.33145701762445967" transform="matrix(0.7349814441407826,-0.678087219145686,0.678087219145686,0.7349814441407826,177.84354672587403,-55.219444328832395)" fill="none" stroke="#2f42a3" filter="url(#bbburst-blur-2)"></use><use xlink:href="#bbburst-shape-13" width="25.770943291059552" opacity="0.8199697344714906" transform="matrix(0.9396132818684556,0.3422380465938734,-0.3422380465938734,0.9396132818684556,767.886506388217,331.4675985575327)" fill="none" stroke="#2f42a3"></use><use xlink:href="#bbburst-shape-1" width="51.32740917732553" opacity="0.24570237038595233" transform="matrix(0.9999959967799803,-0.0028295625127435636,0.0028295625127435636,0.9999959967799803,25.01359020958892,304.35475273621137)" fill="#2f42a3" filter="url(#bbburst-blur-3)"></use><use xlink:href="#bbburst-shape-3" width="63.94240854865348" opacity="0.15819887274354905" transform="matrix(0.9774011612184083,0.21139292809577892,-0.21139292809577892,0.9774011612184083,196.33517958381725,-124.39050224386125)" fill="#2f42a3" filter="url(#bbburst-blur-3)"></use><use xlink:href="#bbburst-shape-13" width="15.4948419869493" opacity="0.8546492277691071" transform="matrix(0.8439800782841549,-0.5363745216352765,0.5363745216352765,0.8439800782841549,436.6805877473727,436.61000178892186)" fill="none" stroke="#2f42a3"></use><use xlink:href="#bbburst-shape-1" width="16.355551756804072" opacity="0.8967813818645859" transform="matrix(0.9622675302113495,0.27210512729632585,-0.27210512729632585,0.9622675302113495,800.4930869528617,389.2437240230882)" fill="#2f42a3"></use><use xlink:href="#bbburst-shape-5" width="25.989194393270424" opacity="0.7056743585764" transform="matrix(0.9338171502125849,0.357750653345101,-0.357750653345101,0.9338171502125849,893.5815338231691,129.88252451472363)" fill="#2f42a3"></use><use xlink:href="#bbburst-shape-5" width="51.639360782798306" opacity="0.25083692875035535" transform="matrix(0.8617530937854209,0.5073279071283734,-0.5073279071283734,0.8617530937854209,896.7068104536636,-302.24213073946805)" fill="#2f42a3" filter="url(#bbburst-blur-2)"></use><use xlink:href="#bbburst-shape-13" width="18.946663588738552" opacity="0.8198709286377373" transform="matrix(0.8066507718082179,0.5910283684741422,-0.5910283684741422,0.8066507718082179,942.2322716302283,313.76043279219147)" fill="none" stroke="#2f42a3"></use><use xlink:href="#bbburst-shape-5" width="18.78585570551333" opacity="0.8085428261330118" transform="matrix(0.9414266486408812,0.3372178305321337,-0.3372178305321337,0.9414266486408812,736.3988390884676,393.98608503358804)" fill="#2f42a3"></use><use xlink:href="#bbburst-shape-5" width="18.52345394065724" opacity="0.8403544358006507" transform="matrix(0.89602038802699,-0.4440129099924486,0.4440129099924486,0.89602038802699,589.4835338162022,287.96726864434595)" fill="#2f42a3"></use><use xlink:href="#bbburst-shape-1" width="33.398119664751874" opacity="0.5131397993265057" transform="matrix(0.9041206742290396,-0.4272772009265493,0.4272772009265493,0.9041206742290396,193.68222156745287,199.84754167420988)" fill="#2f42a3" filter="url(#bbburst-blur-1)"></use><use xlink:href="#bbburst-shape-1" width="22.31722825147479" opacity="0.7624108827476692" transform="matrix(0.9255336737603468,0.3786653122952722,-0.3786653122952722,0.9255336737603468,818.9659688240074,221.81060273138723)" fill="#2f42a3"></use><use xlink:href="#bbburst-shape-1" width="26.06101095936299" opacity="0.7078803094901549" transform="matrix(0.9901502465708716,0.14000888977362178,-0.14000888977362178,0.9901502465708716,567.8112705670288,304.41521263186877)" fill="#2f42a3"></use></svg>