<svg xmlns="http://www.w3.org/2000/svg" version="1.1" xmlns:xlink="http://www.w3.org/1999/xlink" xmlns:svgjs="http://svgjs.dev/svgjs" viewBox="0 0 800 800" opacity="1"><defs><filter id="bbburst-blur-1" x="-100%" y="-100%" width="400%" height="400%"><feGaussianBlur in="SourceGraphic" stdDeviation="1"></feGaussianBlur></filter><filter id="bbburst-blur-2" x="-100%" y="-100%" width="400%" height="400%"><feGaussianBlur in="SourceGraphic" stdDeviation="2"></feGaussianBlur></filter><filter id="bbburst-blur-3" x="-100%" y="-100%" width="400%" height="400%"><feGaussianBlur in="SourceGraphic" stdDeviation="4"></feGaussianBlur></filter><filter id="bbburst-blur-4" x="-100%" y="-100%" width="400%" height="400%"><feGaussianBlur in="SourceGraphic" stdDeviation="12"></feGaussianBlur></filter><symbol id="bbburst-shape-1" viewBox="0 0 194 167"><path d="m97 0 96.129 166.5H.871L97 0Z"></path></symbol><symbol id="bbburst-shape-3" viewBox="0 0 131 127"><path d="m66 0 66 63.5L66 127 0 63.5 66 0Z"></path></symbol><symbol id="bbburst-shape-5" viewBox="0 0 145 145"><circle cx="72.5" cy="72.5" r="72.5"></circle></symbol><symbol id="bbburst-shape-10" viewBox="0 0 145 145"><circle cx="72.5" cy="72.5" r="61.5" fill="none" stroke-width="22"></circle></symbol><symbol id="bbburst-shape-11" viewBox="0 0 194 167"><path d="M10.398 161 97 11l86.603 150H10.397Z" stroke-width="11"></path></symbol><symbol id="bbburst-shape-13" viewBox="0 0 159 159"><path stroke-width="22" d="M11 11h137v137H11z"></path></symbol></defs><use xlink:href="#bbburst-shape-11" width="45.61972113696562" opacity="0.5695994179664299" transform="matrix(0.7946658919167856,-0.6070470494320022,0.6070470494320022,0.7946658919167856,-75.91580014740802,107.08468835408075)" fill="none" stroke="#2f42a3" filter="url(#bbburst-blur-1)"></use><use xlink:href="#bbburst-shape-3" width="21.575666013534864" opacity="0.7819029394660617" transform="matrix(0.9148770664799597,0.4037325268405103,-0.4037325268405103,0.9148770664799597,184.32694173677092,214.04077534093926)" fill="#2f42a3"></use><use xlink:href="#bbburst-shape-13" width="34.35085542871087" opacity="0.7093627223498404" transform="matrix(0.7838602510699393,-0.62093728088477,0.62093728088477,0.7838602510699393,1.3752437166945128,373.8779615455627)" fill="none" stroke="#2f42a3"></use><use xlink:href="#bbburst-shape-11" width="32.766666808781125" opacity="0.6513615442591046" transform="matrix(0.9841111959616156,0.17755324267103295,-0.17755324267103295,0.9841111959616156,90.5493443352579,56.2124994694276)" fill="none" stroke="#2f42a3"></use><use xlink:href="#bbburst-shape-3" width="15.634982677460354" opacity="0.8416551703209032" transform="matrix(0.9999995254310309,-0.0009742369902110613,0.0009742369902110613,0.9999995254310309,148.57744418576587,378.26044998191696)" fill="#2f42a3"></use><use xlink:href="#bbburst-shape-10" width="19.011710998279565" opacity="0.8893018518507051" transform="matrix(0.843717844814955,-0.53678692079894,0.53678692079894,0.843717844814955,-138.65875797116695,395.6067250811282)" fill="none" stroke="#2f42a3"></use><use xlink:href="#bbburst-shape-13" width="64.22541715295895" opacity="0.10021220523664376" transform="matrix(0.8455321626138675,-0.533924490902521,0.533924490902521,0.8455321626138675,313.0290686655831,-230.27630469780047)" fill="none" stroke="#2f42a3" filter="url(#bbburst-blur-3)"></use><use xlink:href="#bbburst-shape-13" width="27.357981527502176" opacity="0.7224363567784179" transform="matrix(0.9937688938095309,0.11146024267235904,-0.11146024267235904,0.9937688938095309,69.07705661617766,126.02962825449652)" fill="none" stroke="#2f42a3"></use><use xlink:href="#bbburst-shape-5" width="32.702973259250356" opacity="0.5750162381817915" transform="matrix(0.8365047599811645,0.5479596577567133,-0.5479596577567133,0.8365047599811645,275.6393842962239,37.28129507842914)" fill="#2f42a3" filter="url(#bbburst-blur-1)"></use><use xlink:href="#bbburst-shape-11" width="56.30590455499066" opacity="0.46421822114445954" transform="matrix(0.8453238769335184,0.534254193325692,-0.534254193325692,0.8453238769335184,475.5700948967974,-7.301009018572529)" fill="none" stroke="#2f42a3" filter="url(#bbburst-blur-1)"></use><use xlink:href="#bbburst-shape-10" width="46.27844223128187" opacity="0.5706770711683122" transform="matrix(0.9126685549697036,-0.4087005123186331,0.4087005123186331,0.9126685549697036,240.57049144729336,384.8129037813893)" fill="none" stroke="#2f42a3" filter="url(#bbburst-blur-1)"></use><use xlink:href="#bbburst-shape-5" width="11.181853462155487" opacity="0.974332163388107" transform="matrix(0.7453096835404223,-0.6667184380387838,0.6667184380387838,0.7453096835404223,-249.93122430268915,490.73559076728657)" fill="#2f42a3"></use><use xlink:href="#bbburst-shape-11" width="75.69658369116405" opacity="-0.0013575702180530502" transform="matrix(0.7915868499298505,-0.6110566741458081,0.6110566741458081,0.7915868499298505,440.3115888764201,-195.04791917696326)" fill="none" stroke="#2f42a3" filter="url(#bbburst-blur-3)"></use><use xlink:href="#bbburst-shape-13" width="14.402206771283652" opacity="0.915469472815459" transform="matrix(0.7105422755915798,0.703654513662166,-0.703654513662166,0.7105422755915798,306.8127930662598,431.8672320332166)" fill="none" stroke="#2f42a3"></use><use xlink:href="#bbburst-shape-5" width="22.603307953231454" opacity="0.8245792590514309" transform="matrix(0.9215537540201778,-0.3882507932397791,0.3882507932397791,0.9215537540201778,-45.92538856644538,307.6149499387292)" fill="#2f42a3"></use><use xlink:href="#bbburst-shape-11" width="48.40379475810215" opacity="0.3462377491963471" transform="matrix(0.9885894714746628,0.15063484619916734,-0.15063484619916734,0.9885894714746628,655.1422091645939,189.13710090459682)" fill="none" stroke="#2f42a3" filter="url(#bbburst-blur-2)"></use><use xlink:href="#bbburst-shape-11" width="64.70227490347823" opacity="0.20882203331266402" transform="matrix(0.9186848890424233,-0.39499123363071026,0.39499123363071026,0.9186848890424233,534.7801042880835,122.84838351430523)" fill="none" stroke="#2f42a3" filter="url(#bbburst-blur-3)"></use><use xlink:href="#bbburst-shape-1" width="59.87756193509929" opacity="0.39816631194032814" transform="matrix(0.9456228774697503,0.3252650820574346,-0.3252650820574346,0.9456228774697503,523.1844030469886,-17.58132835802138)" fill="#2f42a3" filter="url(#bbburst-blur-2)"></use><use xlink:href="#bbburst-shape-13" width="49.937912576118336" opacity="0.2448240378081854" transform="matrix(0.9977589274847961,-0.06691130415997994,0.06691130415997994,0.9977589274847961,695.0436894695329,289.88098044670124)" fill="none" stroke="#2f42a3" filter="url(#bbburst-blur-3)"></use><use xlink:href="#bbburst-shape-11" width="73.97276581587032" opacity="0.18137346458038717" transform="matrix(0.954049020321573,-0.29965057454216043,0.29965057454216043,0.954049020321573,226.361623610046,-295.5886641858037)" fill="none" stroke="#2f42a3" filter="url(#bbburst-blur-3)"></use><use xlink:href="#bbburst-shape-1" width="53.24395514560266" opacity="0.4639093732179188" transform="matrix(0.8068549409038914,-0.5907496122207596,0.5907496122207596,0.8068549409038914,-89.04846410296969,-15.817747363287992)" fill="#2f42a3" filter="url(#bbburst-blur-1)"></use><use xlink:href="#bbburst-shape-3" width="50.29141794645109" opacity="0.25799661101538174" transform="matrix(0.7101539837182892,-0.7040463900973031,0.7040463900973031,0.7101539837182892,-226.87492494891976,-204.65233567291153)" fill="#2f42a3" filter="url(#bbburst-blur-2)"></use><use xlink:href="#bbburst-shape-1" width="54.8262893791074" opacity="0.2622032878854056" transform="matrix(0.9312979143916057,-0.3642584174042453,0.3642584174042453,0.9312979143916057,288.13654336154093,-139.8300918125518)" fill="#2f42a3" filter="url(#bbburst-blur-2)"></use><use xlink:href="#bbburst-shape-13" width="63.781114270463256" opacity="0.11091081831867078" transform="matrix(0.8135345867906301,0.5815165312313991,-0.5815165312313991,0.8135345867906301,934.3580696209531,-54.78040298843905)" fill="none" stroke="#2f42a3" filter="url(#bbburst-blur-3)"></use><use xlink:href="#bbburst-shape-11" width="26.149379963688602" opacity="0.7606714813592175" transform="matrix(0.9854072418635423,0.17021330054636205,-0.17021330054636205,0.9854072418635423,197.260982151596,210.63085803445608)" fill="none" stroke="#2f42a3"></use><use xlink:href="#bbburst-shape-11" width="40.64283685307563" opacity="0.5471402326626438" transform="matrix(0.8691769436664911,0.49450120383936114,-0.49450120383936114,0.8691769436664911,479.1347899442012,101.47603235276102)" fill="none" stroke="#2f42a3" filter="url(#bbburst-blur-1)"></use><use xlink:href="#bbburst-shape-11" width="38.791034544428285" opacity="0.6079797110285214" transform="matrix(0.9894755408730799,-0.14470022119515205,0.14470022119515205,0.9894755408730799,281.9055077727567,249.15748796402193)" fill="none" stroke="#2f42a3" filter="url(#bbburst-blur-1)"></use><use xlink:href="#bbburst-shape-1" width="33.245960744467425" opacity="0.7871012638074324" transform="matrix(0.7330794842160907,-0.6801429774844922,0.6801429774844922,0.7330794842160907,-102.60434687136316,407.00296028239984)" fill="#2f42a3"></use><use xlink:href="#bbburst-shape-13" width="43.75077578159641" opacity="0.37921113097103953" transform="matrix(0.7176216000887076,0.6964332265810722,-0.6964332265810722,0.7176216000887076,327.958323022472,-119.65117497113488)" fill="none" stroke="#2f42a3" filter="url(#bbburst-blur-2)"></use><use xlink:href="#bbburst-shape-13" width="35.32842451296468" opacity="0.6598240982428717" transform="matrix(0.9630892924983436,0.26918212175967404,-0.26918212175967404,0.9630892924983436,427.0965708666796,359.70531801594467)" fill="none" stroke="#2f42a3"></use><use xlink:href="#bbburst-shape-13" width="14.089050288287314" opacity="0.9479272544203458" transform="matrix(0.998637689806717,0.05218011592075518,-0.05218011592075518,0.998637689806717,34.52281237505659,352.3895497946996)" fill="none" stroke="#2f42a3"></use><use xlink:href="#bbburst-shape-1" width="15.348939191663352" opacity="0.9337511936497995" transform="matrix(0.9725862867583498,-0.2325422860677277,0.2325422860677277,0.9725862867583498,-39.568734220457905,386.7086541693837)" fill="#2f42a3"></use><use xlink:href="#bbburst-shape-11" width="47.434356491295304" opacity="0.6341754756813263" transform="matrix(0.9949754632711475,0.10011906655760107,-0.10011906655760107,0.9949754632711475,302.06809158672536,170.36874600194744)" fill="none" stroke="#2f42a3" filter="url(#bbburst-blur-1)"></use><use xlink:href="#bbburst-shape-11" width="19.516788906074737" opacity="0.8080417299660263" transform="matrix(0.858970576101322,0.5120249499703731,-0.5120249499703731,0.858970576101322,275.36576150698636,276.16464485918686)" fill="none" stroke="#2f42a3"></use><use xlink:href="#bbburst-shape-13" width="24.54950370399673" opacity="0.8463251699097994" transform="matrix(0.8550653269126084,0.5185202857283735,-0.5185202857283735,0.8550653269126084,333.9863521280059,382.13481439750956)" fill="none" stroke="#2f42a3"></use><use xlink:href="#bbburst-shape-10" width="31.895177957127036" opacity="0.6556457307321188" transform="matrix(0.9638209204221311,-0.2665506206269947,0.2665506206269947,0.9638209204221311,-4.073954830881192,95.18659373529198)" fill="none" stroke="#2f42a3"></use><use xlink:href="#bbburst-shape-13" width="22.610535031842257" opacity="0.8353988613688966" transform="matrix(0.7613576419515165,-0.6483321224820089,0.6483321224820089,0.7613576419515165,-243.2270055705367,340.0511659482327)" fill="none" stroke="#2f42a3"></use><use xlink:href="#bbburst-shape-5" width="45.292318241737156" opacity="0.48814709696975833" transform="matrix(0.995307898895435,0.09675839186527722,-0.09675839186527722,0.995307898895435,66.34468722713817,-109.70150114489223)" fill="#2f42a3" filter="url(#bbburst-blur-1)"></use><use xlink:href="#bbburst-shape-10" width="43.69326208562408" opacity="0.2227369268717897" transform="matrix(0.7292909350708499,0.6842037211412149,-0.6842037211412149,0.7292909350708499,485.10591357580296,-249.93151184672024)" fill="none" stroke="#2f42a3" filter="url(#bbburst-blur-3)"></use><use xlink:href="#bbburst-shape-11" width="49.92105003811418" opacity="0.3614058227247039" transform="matrix(0.9517940658965562,-0.3067377644244379,0.3067377644244379,0.9517940658965562,395.2429087650403,88.45822489751669)" fill="none" stroke="#2f42a3" filter="url(#bbburst-blur-2)"></use><use xlink:href="#bbburst-shape-13" width="46.107545838385896" opacity="0.6573430033108763" transform="matrix(0.9959569853324693,-0.08983141637233273,0.08983141637233273,0.9959569853324693,141.15379096501098,125.48850680794948)" fill="none" stroke="#2f42a3"></use><use xlink:href="#bbburst-shape-13" width="23.77188690538968" opacity="0.7318718217415346" transform="matrix(0.9999987945077919,0.0015527340283730605,-0.0015527340283730605,0.9999987945077919,96.25155890889664,154.35438709164504)" fill="none" stroke="#2f42a3"></use><use xlink:href="#bbburst-shape-3" width="30.760687695537673" opacity="0.7245192440956046" transform="matrix(0.9507740548518232,0.3098849732088059,-0.3098849732088059,0.9507740548518232,314.9863897679634,231.72266262378844)" fill="#2f42a3"></use><use xlink:href="#bbburst-shape-13" width="18.055185067924036" opacity="0.8655128660465333" transform="matrix(0.9732935462269396,0.22956409317005136,-0.22956409317005136,0.9732935462269396,148.67596943588137,291.2278903741093)" fill="none" stroke="#2f42a3"></use><use xlink:href="#bbburst-shape-11" width="17.13772656276409" opacity="0.8808529959172637" transform="matrix(0.7093655983263529,-0.7048407252075432,0.7048407252075432,0.7093655983263529,-268.4774524959838,404.62849659194546)" fill="none" stroke="#2f42a3"></use><use xlink:href="#bbburst-shape-11" width="62.36209463358791" opacity="0.23324559315709015" transform="matrix(0.9338408544971988,-0.3576887731980718,0.3576887731980718,0.9338408544971988,414.468157470557,-56.49247670154449)" fill="none" stroke="#2f42a3" filter="url(#bbburst-blur-3)"></use><use xlink:href="#bbburst-shape-11" width="18.48647842831726" opacity="0.7900237616338275" transform="matrix(0.9817607315663431,-0.19012066156606655,0.19012066156606655,0.9817607315663431,120.17380156583529,364.947977067002)" fill="none" stroke="#2f42a3"></use><use xlink:href="#bbburst-shape-5" width="48.284498610255625" opacity="0.5102687833046502" transform="matrix(0.7310994475276903,-0.6822709123395969,0.6822709123395969,0.7310994475276903,108.39492169397244,240.00249932963646)" fill="#2f42a3" filter="url(#bbburst-blur-1)"></use><use xlink:href="#bbburst-shape-13" width="50.64218881024114" opacity="0.33827431040884204" transform="matrix(0.9914472726696484,0.1305078753022816,-0.1305078753022816,0.9914472726696484,222.80165075140013,-232.00785993765706)" fill="none" stroke="#2f42a3" filter="url(#bbburst-blur-2)"></use><use xlink:href="#bbburst-shape-13" width="27.90961265993705" opacity="0.732955681765519" transform="matrix(0.9934848416351182,0.1139643340753768,-0.1139643340753768,0.9934848416351182,296.1001656185779,363.3756875226886)" fill="none" stroke="#2f42a3"></use><use xlink:href="#bbburst-shape-13" width="34.674576808546576" opacity="0.46812893769449604" transform="matrix(0.9960019522472264,0.08933146769035877,-0.08933146769035877,0.9960019522472264,545.6030198191627,329.2554679111933)" fill="none" stroke="#2f42a3" filter="url(#bbburst-blur-1)"></use><use xlink:href="#bbburst-shape-1" width="47.7683263272467" opacity="0.3435906594386804" transform="matrix(0.9981201421721076,0.06128769689204808,-0.06128769689204808,0.9981201421721076,315.47854632271947,-176.64527619816283)" fill="#2f42a3" filter="url(#bbburst-blur-2)"></use><use xlink:href="#bbburst-shape-5" width="19.43658441408674" opacity="0.89286484631881" transform="matrix(0.9790065785996536,0.20382865122106922,-0.20382865122106922,0.9790065785996536,176.58045795609016,383.08275351686024)" fill="#2f42a3"></use><use xlink:href="#bbburst-shape-13" width="46.44841335907025" opacity="0.48537379230161815" transform="matrix(0.9992227016204313,0.03942071240308457,-0.03942071240308457,0.9992227016204313,470.4995220486359,208.56567943309597)" fill="none" stroke="#2f42a3" filter="url(#bbburst-blur-1)"></use><use xlink:href="#bbburst-shape-3" width="48.29990210345363" opacity="0.3567915818546318" transform="matrix(0.9996767331051644,-0.025424973710623407,0.025424973710623407,0.9996767331051644,605.6818195953981,338.3870840477092)" fill="#2f42a3" filter="url(#bbburst-blur-2)"></use></svg>