<svg xmlns="http://www.w3.org/2000/svg" version="1.1" xmlns:xlink="http://www.w3.org/1999/xlink" xmlns:svgjs="http://svgjs.dev/svgjs" viewBox="0 0 800 800" opacity="1"><defs><filter id="bbburst-blur-1" x="-100%" y="-100%" width="400%" height="400%"><feGaussianBlur in="SourceGraphic" stdDeviation="1"></feGaussianBlur></filter><filter id="bbburst-blur-2" x="-100%" y="-100%" width="400%" height="400%"><feGaussianBlur in="SourceGraphic" stdDeviation="2"></feGaussianBlur></filter><filter id="bbburst-blur-3" x="-100%" y="-100%" width="400%" height="400%"><feGaussianBlur in="SourceGraphic" stdDeviation="4"></feGaussianBlur></filter><filter id="bbburst-blur-4" x="-100%" y="-100%" width="400%" height="400%"><feGaussianBlur in="SourceGraphic" stdDeviation="12"></feGaussianBlur></filter><symbol id="bbburst-shape-1" viewBox="0 0 194 167"><path d="m97 0 96.129 166.5H.871L97 0Z"></path></symbol><symbol id="bbburst-shape-3" viewBox="0 0 131 127"><path d="m66 0 66 63.5L66 127 0 63.5 66 0Z"></path></symbol><symbol id="bbburst-shape-5" viewBox="0 0 145 145"><circle cx="72.5" cy="72.5" r="72.5"></circle></symbol><symbol id="bbburst-shape-10" viewBox="0 0 145 145"><circle cx="72.5" cy="72.5" r="61.5" fill="none" stroke-width="22"></circle></symbol><symbol id="bbburst-shape-11" viewBox="0 0 194 167"><path d="M10.398 161 97 11l86.603 150H10.397Z" stroke-width="11"></path></symbol><symbol id="bbburst-shape-13" viewBox="0 0 159 159"><path stroke-width="22" d="M11 11h137v137H11z"></path></symbol></defs><use xlink:href="#bbburst-shape-3" width="37.90084115849921" opacity="0.5207653245759821" transform="matrix(0.9974369254202429,-0.07155123904037497,0.07155123904037497,0.9974369254202429,691.5591331769151,77.75702995316306)" fill="#ffff" filter="url(#bbburst-blur-1)"></use><use xlink:href="#bbburst-shape-13" width="64.75493971928611" opacity="0.26909605292108474" transform="matrix(0.9777822774618976,-0.20962303757322254,0.20962303757322254,0.9777822774618976,606.4840838130781,342.4033052748681)" fill="none" stroke="#ffff" filter="url(#bbburst-blur-2)"></use><use xlink:href="#bbburst-shape-1" width="31.187842680126128" opacity="0.6283641402568793" transform="matrix(0.8574597862891425,0.5145509837683513,-0.5145509837683513,0.8574597862891425,624.8955639524092,-295.9031707819855)" fill="#ffff" filter="url(#bbburst-blur-1)"></use><use xlink:href="#bbburst-shape-3" width="66.74942703843398" opacity="0.28229515215698675" transform="matrix(0.7548954283849979,-0.6558451739575664,0.6558451739575664,0.7548954283849979,-98.82217806608543,96.47537015956152)" fill="#ffff" filter="url(#bbburst-blur-2)"></use><use xlink:href="#bbburst-shape-1" width="30.836588595063596" opacity="0.785466784534634" transform="matrix(0.9964452523873414,-0.08424285723269145,0.08424285723269145,0.9964452523873414,539.2377729048142,-362.51906550493123)" fill="#ffff"></use><use xlink:href="#bbburst-shape-13" width="16.18094189829079" opacity="0.9061599621189446" transform="matrix(0.922326871902267,0.38641058650997007,-0.38641058650997007,0.922326871902267,926.7226089375657,-280.4566170021307)" fill="none" stroke="#ffff"></use><use xlink:href="#bbburst-shape-3" width="54.50064671807411" opacity="0.26110251888225444" transform="matrix(0.7572570236239157,-0.6531169881210016,0.6531169881210016,0.7572570236239157,-216.35158961346994,-202.77610479267105)" fill="#ffff" filter="url(#bbburst-blur-2)"></use><use xlink:href="#bbburst-shape-13" width="50.523421721933154" opacity="0.5742289288822249" transform="matrix(0.9934703202358038,0.11409085331686039,-0.11409085331686039,0.9934703202358038,515.0894016648635,-103.6540026913508)" fill="none" stroke="#ffff" filter="url(#bbburst-blur-1)"></use><use xlink:href="#bbburst-shape-5" width="44.08861054164771" opacity="0.5349159765005644" transform="matrix(0.9828640664319398,0.1843318391295204,-0.1843318391295204,0.9828640664319398,667.7026362931975,29.772442845631872)" fill="#ffff" filter="url(#bbburst-blur-1)"></use><use xlink:href="#bbburst-shape-11" width="76.77039527267408" opacity="0.19570306745483268" transform="matrix(0.8444308148022529,-0.5356646329676837,0.5356646329676837,0.8444308148022529,-9.140276473067246,257.39046472748936)" fill="none" stroke="#ffff" filter="url(#bbburst-blur-3)"></use><use xlink:href="#bbburst-shape-11" width="28.808713872386413" opacity="0.7309984497275721" transform="matrix(0.971852709912265,0.2355892829400074,-0.2355892829400074,0.971852709912265,640.3134997861723,-271.01836733193164)" fill="none" stroke="#ffff"></use><use xlink:href="#bbburst-shape-11" width="58.73437141139132" opacity="0.42303602236911964" transform="matrix(0.980474963733882,-0.19664395615183017,0.19664395615183017,0.980474963733882,118.52717000806105,-327.51121086680075)" fill="none" stroke="#ffff" filter="url(#bbburst-blur-2)"></use><use xlink:href="#bbburst-shape-1" width="26.13110310066337" opacity="0.7550117599823172" transform="matrix(0.9998540175782725,-0.01708635515806369,0.01708635515806369,0.9998540175782725,753.0448976530291,-156.19519172337166)" fill="#ffff"></use><use xlink:href="#bbburst-shape-13" width="15.838124739840188" opacity="0.8642303466810412" transform="matrix(0.7158997014746145,-0.6982031347885498,0.6982031347885498,0.7158997014746145,487.6310557906322,-147.85848338308745)" fill="none" stroke="#ffff"></use><use xlink:href="#bbburst-shape-11" width="45.80406414086198" opacity="0.4255067499432119" transform="matrix(0.9732550100906868,0.2297274152846742,-0.2297274152846742,0.9732550100906868,647.1202585537383,134.46993276514462)" fill="none" stroke="#ffff" filter="url(#bbburst-blur-2)"></use><use xlink:href="#bbburst-shape-13" width="69.81564844663018" opacity="0.2053597601862177" transform="matrix(0.9907645929705989,-0.13559322002151683,0.13559322002151683,0.9907645929705989,-27.047184657961928,-97.50155829613271)" fill="none" stroke="#ffff" filter="url(#bbburst-blur-3)"></use><use xlink:href="#bbburst-shape-1" width="11.210743646949698" opacity="0.9766570820990155" transform="matrix(0.8956116795667278,0.4448367334468511,-0.4448367334468511,0.8956116795667278,954.7333209246056,-346.07691382666604)" fill="#ffff"></use><use xlink:href="#bbburst-shape-3" width="20.190707142142458" opacity="0.7938502790081807" transform="matrix(0.9762878054641335,-0.21647660590009757,0.21647660590009757,0.9762878054641335,546.603038689116,-254.56734243113647)" fill="#ffff"></use><use xlink:href="#bbburst-shape-3" width="14.684648694647812" opacity="0.9482570883337357" transform="matrix(0.7717147536083404,0.6359688192539147,-0.6359688192539147,0.7717147536083404,1032.3997080635825,-264.2754267685027)" fill="#ffff"></use><use xlink:href="#bbburst-shape-3" width="18.978416071644673" opacity="0.8185726666314739" transform="matrix(0.8033106011965778,0.5955603059348337,-0.5955603059348337,0.8033106011965778,866.6262980486133,-249.25540159263807)" fill="#ffff"></use><use xlink:href="#bbburst-shape-1" width="84.14680379496255" opacity="0.006475470535670547" transform="matrix(0.7921110636388383,0.6103769842162696,-0.6103769842162696,0.7921110636388383,316.44726760257953,368.2111621675823)" fill="#ffff" filter="url(#bbburst-blur-3)"></use><use xlink:href="#bbburst-shape-13" width="19.269617246632986" opacity="0.8725831763606442" transform="matrix(0.995855172365011,-0.0909531509836485,0.0909531509836485,0.995855172365011,649.236759472222,-324.976392479689)" fill="none" stroke="#ffff"></use><use xlink:href="#bbburst-shape-10" width="76.46735104600364" opacity="0.11498024406494611" transform="matrix(0.737703794711105,0.6751245153813004,-0.6751245153813004,0.737703794711105,317.10753232871025,187.05878108854802)" fill="none" stroke="#ffff" filter="url(#bbburst-blur-3)"></use><use xlink:href="#bbburst-shape-11" width="29.548716772323218" opacity="0.701745721310931" transform="matrix(0.8314253045794334,0.5556365384898624,-0.5556365384898624,0.8314253045794334,926.0590253975739,-54.95104777885405)" fill="none" stroke="#ffff"></use><use xlink:href="#bbburst-shape-11" width="60.209178799755165" opacity="0.30892522982691684" transform="matrix(0.9145659935978725,-0.4044366988223697,0.4044366988223697,0.9145659935978725,220.60775799943562,216.30813156939752)" fill="none" stroke="#ffff" filter="url(#bbburst-blur-2)"></use><use xlink:href="#bbburst-shape-5" width="58.82495868927865" opacity="0.1385035634782924" transform="matrix(0.7908065050461847,-0.612066231364416,0.612066231364416,0.7908065050461847,69.7926128186383,428.7423671852695)" fill="#ffff" filter="url(#bbburst-blur-3)"></use><use xlink:href="#bbburst-shape-3" width="36.21478598189069" opacity="0.7106912944309425" transform="matrix(0.9510464755021631,-0.30904789505012564,0.30904789505012564,0.9510464755021631,373.53729145562346,-327.93595113648104)" fill="#ffff"></use><use xlink:href="#bbburst-shape-11" width="52.23358872935271" opacity="0.5349869450752087" transform="matrix(0.8057206939798756,0.5922956721879603,-0.5922956721879603,0.8057206939798756,561.1267260928801,-243.02088059474562)" fill="none" stroke="#ffff" filter="url(#bbburst-blur-1)"></use><use xlink:href="#bbburst-shape-5" width="18.493371797358087" opacity="0.8173397348118856" transform="matrix(0.9692083250410988,0.24624220326952054,-0.24624220326952054,0.9692083250410988,860.5720577070472,-209.61081644746645)" fill="#ffff"></use><use xlink:href="#bbburst-shape-1" width="37.914852798535705" opacity="0.30340208122247747" transform="matrix(0.9781891846290927,0.20771595767940143,-0.20771595767940143,0.9781891846290927,606.6278788766938,251.9309504300134)" fill="#ffff" filter="url(#bbburst-blur-2)"></use><use xlink:href="#bbburst-shape-11" width="17.802006847376152" opacity="0.9426375863486331" transform="matrix(0.9995820207245562,0.028909926395841872,-0.028909926395841872,0.9995820207245562,749.9493261096598,-377.72239908617007)" fill="none" stroke="#ffff"></use><use xlink:href="#bbburst-shape-11" width="37.575750634789486" opacity="0.6038835936846174" transform="matrix(0.964539002273584,-0.26394035896974716,0.26394035896974716,0.964539002273584,463.304129540144,-47.26621870274096)" fill="none" stroke="#ffff" filter="url(#bbburst-blur-1)"></use><use xlink:href="#bbburst-shape-11" width="57.26358561504006" opacity="0.4255724646961082" transform="matrix(0.7150669013814498,-0.699056025328966,0.699056025328966,0.7150669013814498,-25.16140195522661,-32.41353191789423)" fill="none" stroke="#ffff" filter="url(#bbburst-blur-2)"></use><use xlink:href="#bbburst-shape-10" width="22.703271834844966" opacity="0.7535040491763172" transform="matrix(0.8784381396161389,-0.47785608175237954,0.47785608175237954,0.8784381396161389,450.4475395559091,-149.16077559837177)" fill="none" stroke="#ffff"></use><use xlink:href="#bbburst-shape-13" width="57.1030619431195" opacity="0.5048831475963212" transform="matrix(0.8578626393862275,0.5138790635405331,-0.5138790635405331,0.8578626393862275,567.3438377504481,-85.8225557679732)" fill="none" stroke="#ffff" filter="url(#bbburst-blur-1)"></use><use xlink:href="#bbburst-shape-10" width="72.84785597908805" opacity="0.3675867462401998" transform="matrix(0.9466365999586,0.32230288180347,-0.32230288180347,0.9466365999586,421.34497321315786,29.280365649628948)" fill="none" stroke="#ffff" filter="url(#bbburst-blur-2)"></use><use xlink:href="#bbburst-shape-11" width="14.244843097190085" opacity="0.916367396445755" transform="matrix(0.9980200700485147,-0.06289626205393999,0.06289626205393999,0.9980200700485147,714.7934473588449,-334.1897225885174)" fill="none" stroke="#ffff"></use><use xlink:href="#bbburst-shape-1" width="69.50803998842676" opacity="0.4622021730199585" transform="matrix(0.9344621807909428,-0.3560623999686507,0.3560623999686507,0.9344621807909428,294.4574572415363,62.79813303061303)" fill="#ffff" filter="url(#bbburst-blur-1)"></use><use xlink:href="#bbburst-shape-11" width="22.53003421373044" opacity="0.8230570450372311" transform="matrix(0.9757287901850169,-0.21898248332705342,0.21898248332705342,0.9757287901850169,611.313407580055,-235.78628319993075)" fill="none" stroke="#ffff"></use><use xlink:href="#bbburst-shape-13" width="21.743956173204737" opacity="0.8542950407765479" transform="matrix(0.9379018976605459,0.3469006058869701,-0.3469006058869701,0.9379018976605459,784.9119593111853,-354.5560278338356)" fill="none" stroke="#ffff"></use><use xlink:href="#bbburst-shape-13" width="60.125529010346696" opacity="0.3323776670433113" transform="matrix(0.9956865554094009,-0.09278083518142172,0.09278083518142172,0.9956865554094009,90.53074601072025,-213.7955182767642)" fill="none" stroke="#ffff" filter="url(#bbburst-blur-2)"></use><use xlink:href="#bbburst-shape-13" width="32.888239680807274" opacity="0.6129347134788358" transform="matrix(0.9685814870377244,0.24869640722734723,-0.24869640722734723,0.9685814870377244,799.6597055104141,-13.657435901985195)" fill="none" stroke="#ffff" filter="url(#bbburst-blur-1)"></use><use xlink:href="#bbburst-shape-3" width="58.92582981148357" opacity="0.40098089765265754" transform="matrix(0.9621441523014601,-0.27254106147900875,0.27254106147900875,0.9621441523014601,580.7466248215219,216.65864020841235)" fill="#ffff" filter="url(#bbburst-blur-2)"></use><use xlink:href="#bbburst-shape-11" width="25.79633216998362" opacity="0.668504956483116" transform="matrix(0.9453192522495456,-0.3261464568661754,0.3261464568661754,0.9453192522495456,631.1663976348966,-43.767220968151435)" fill="none" stroke="#ffff"></use><use xlink:href="#bbburst-shape-11" width="44.205064833060035" opacity="0.6850197605984347" transform="matrix(0.7815220538096797,0.6238776157301208,-0.6238776157301208,0.7815220538096797,802.5475129158954,-111.73099895561472)" fill="none" stroke="#ffff"></use><use xlink:href="#bbburst-shape-10" width="26.06098414155555" opacity="0.7699724923773976" transform="matrix(0.8656818061090847,-0.5005946569548191,0.5005946569548191,0.8656818061090847,503.9585350409487,-125.81409552767954)" fill="none" stroke="#ffff"></use><use xlink:href="#bbburst-shape-5" width="18.367382759973918" opacity="0.9056037387569488" transform="matrix(0.9999288981133385,-0.011924710388292048,0.011924710388292048,0.9999288981133385,694.4885245879487,-376.89064088597377)" fill="#ffff"></use><use xlink:href="#bbburst-shape-1" width="34.613328902332164" opacity="0.20867378903026024" transform="matrix(0.9930841331250866,-0.11740487440986097,0.11740487440986097,0.9930841331250866,486.84538689009224,355.9688488899076)" fill="#ffff" filter="url(#bbburst-blur-3)"></use><use xlink:href="#bbburst-shape-1" width="29.433030927516583" opacity="0.6831966233726152" transform="matrix(0.9408517115148239,0.3388186195291318,-0.3388186195291318,0.9408517115148239,770.0390848825664,-103.13141561690645)" fill="#ffff"></use><use xlink:href="#bbburst-shape-13" width="15.64061519751001" opacity="0.8688416470924905" transform="matrix(0.7840533747231277,0.6206934070741162,-0.6206934070741162,0.7840533747231277,966.5385721710717,-211.30233976472937)" fill="none" stroke="#ffff"></use><use xlink:href="#bbburst-shape-10" width="40.461456833327986" opacity="0.622673207978484" transform="matrix(0.8882413321246624,-0.45937711730712627,0.45937711730712627,0.8882413321246624,262.2449223289375,-174.37447722459368)" fill="none" stroke="#ffff" filter="url(#bbburst-blur-1)"></use></svg>