<?xml version="1.0" standalone="no"?><svg xmlns="http://www.w3.org/2000/svg" viewBox="0 0 1440 320"><path fill="#ffffff" fill-opacity="1" d="M0,224L26.7,202.7C53.3,181,107,139,160,149.3C213.3,160,267,224,320,256C373.3,288,427,288,480,266.7C533.3,245,587,203,640,197.3C693.3,192,747,224,800,208C853.3,192,907,128,960,122.7C1013.3,117,1067,171,1120,213.3C1173.3,256,1227,288,1280,277.3C1333.3,267,1387,213,1413,186.7L1440,160L1440,320L1413.3,320C1386.7,320,1333,320,1280,320C1226.7,320,1173,320,1120,320C1066.7,320,1013,320,960,320C906.7,320,853,320,800,320C746.7,320,693,320,640,320C586.7,320,533,320,480,320C426.7,320,373,320,320,320C266.7,320,213,320,160,320C106.7,320,53,320,27,320L0,320Z"></path></svg>