<svg id="visual" viewBox="0 0 900 600" width="900" height="600" xmlns="http://www.w3.org/2000/svg" xmlns:xlink="http://www.w3.org/1999/xlink" version="1.1"><path d="M0 527L25 526.2C50 525.3 100 523.7 150 523.5C200 523.3 250 524.7 300 529.7C350 534.7 400 543.3 450 544.8C500 546.3 550 540.7 600 537.5C650 534.3 700 533.7 750 532.7C800 531.7 850 530.3 875 529.7L900 529L900 601L875 601C850 601 800 601 750 601C700 601 650 601 600 601C550 601 500 601 450 601C400 601 350 601 300 601C250 601 200 601 150 601C100 601 50 601 25 601L0 601Z" fill="#ffffff" stroke-linecap="round" stroke-linejoin="miter"></path></svg>